<svg width="657" height="844" viewBox="0 0 657 844" fill="none" xmlns="http://www.w3.org/2000/svg">
<rect x="133" y="-0.000366211" width="390" height="844" rx="25" fill="white"/>
<ellipse cx="328.111" cy="374.079" rx="288.226" ry="157" transform="rotate(-30 328.111 374.079)" fill="#FDF2DC"/>
<path d="M460.941 243.898L460.854 254.434L462.698 254.259C462.99 254.229 463.488 254.01 464.19 253.6C464.893 253.19 465.683 252.985 466.561 252.985C467.381 252.985 468.068 253.073 468.624 253.249C469.181 253.424 469.459 253.746 469.459 254.215C469.459 254.829 469.239 255.224 468.8 255.4C468.39 255.576 467.746 255.663 466.868 255.663L460.81 255.751L460.722 257.859C460.722 259.293 460.605 260.537 460.371 261.59C460.02 263.171 459.478 263.961 458.746 263.961C458.483 263.961 458.293 263.537 458.176 262.688C458.088 261.81 458.044 260.932 458.044 260.054V243.634C458.044 242.961 457.122 242.288 455.278 241.615C453.463 240.941 452.556 240.517 452.556 240.341C452.556 240.049 452.776 239.859 453.215 239.771C453.654 239.654 454.063 239.595 454.444 239.595C455.702 239.595 457.005 239.785 458.351 240.166C460.166 240.663 461.073 241.322 461.073 242.141L460.941 243.898ZM447.156 260.054L436.181 260.405C436.093 260.932 436.005 261.327 435.917 261.59C435.624 262.38 435.156 262.776 434.512 262.776C434.278 262.776 434.073 262.38 433.898 261.59C433.751 260.8 433.678 260.141 433.678 259.615L433.459 248.727C433.459 248.2 433.063 247.746 432.273 247.366C430.546 246.517 429.683 246.049 429.683 245.961C429.683 245.698 429.873 245.537 430.254 245.478C430.663 245.39 431.059 245.346 431.439 245.346C432.815 245.346 433.839 245.42 434.512 245.566C435.859 245.859 436.532 246.415 436.532 247.234L436.4 248.507V250.395L447.068 250.22V246.488C447.068 246.078 446.512 245.639 445.4 245.171C444.317 244.702 443.776 244.337 443.776 244.073C443.776 243.868 443.893 243.722 444.127 243.634C444.39 243.517 444.756 243.459 445.224 243.459C446.22 243.459 447.215 243.605 448.21 243.898C449.585 244.307 450.273 244.834 450.273 245.478C450.273 245.683 450.244 245.976 450.185 246.356C450.127 246.737 450.098 247.015 450.098 247.19L449.834 257.2C449.834 258.78 449.659 259.937 449.307 260.668C448.956 261.4 448.488 261.766 447.902 261.766C447.639 261.766 447.434 261.488 447.288 260.932C447.259 260.756 447.215 260.463 447.156 260.054ZM441.229 269.054C441.171 268.322 440.585 267.795 439.473 267.473C438.361 267.151 437.805 266.859 437.805 266.595C437.805 266.332 438.024 266.127 438.463 265.98C438.902 265.834 439.517 265.761 440.307 265.761C440.893 265.761 441.537 265.834 442.239 265.98C442.971 266.127 443.761 266.288 444.61 266.463C445.722 266.463 447.873 266.42 451.063 266.332C454.254 266.215 455.937 266.127 456.112 266.068C456.317 266.068 456.566 265.995 456.859 265.849C457.181 265.702 457.532 265.541 457.912 265.366C458.205 265.366 458.834 265.556 459.8 265.937C460.766 266.288 461.249 266.58 461.249 266.815C461.249 267.049 461.102 267.283 460.81 267.517C460.546 267.751 460.4 267.956 460.371 268.132C460.254 268.629 460.137 269.185 460.02 269.8C459.785 270.649 459.624 271.307 459.537 271.776L458.571 276.21C459.039 276.21 459.39 276.239 459.624 276.298C460.327 276.473 460.678 276.81 460.678 277.307C460.678 277.688 460.488 277.937 460.107 278.054C459.756 278.171 459.346 278.229 458.878 278.229L456.332 278.141L444.302 278.449C444.302 279.034 444.215 279.561 444.039 280.029C443.776 280.732 443.366 281.083 442.81 281.083C442.459 281.083 442.195 280.527 442.02 279.415C441.961 279.034 441.932 278.654 441.932 278.273L441.229 269.054ZM444.259 267.78L444.478 277.044L456.771 276.517C456.771 275.698 456.829 274.688 456.946 273.488C457.21 270.766 457.341 269.054 457.341 268.351L457.298 267.341L444.259 267.78ZM436.4 251.888L436.356 258.912L447.068 258.649V251.668L436.4 251.888ZM451.854 305.522C451.766 305.961 451.385 306.268 450.712 306.444C450.068 306.59 449.234 306.663 448.21 306.663H447.244C446.863 306.663 445.927 306.737 444.434 306.883C442.971 307 442.005 307.059 441.537 307.059C440.541 307.059 439.341 307.132 437.937 307.278C437.439 307.307 436.766 307.395 435.917 307.541C435.654 307.541 435.332 307.629 434.951 307.805C434.746 307.893 434.571 307.937 434.424 307.937C433.956 307.937 433.049 307.644 431.702 307.059C430.385 306.444 429.727 306.02 429.727 305.785C429.727 305.727 429.8 305.683 429.946 305.654C429.976 305.654 430.063 305.639 430.21 305.61C430.941 305.61 432.068 305.668 433.59 305.785C435.112 305.902 436.254 305.961 437.015 305.961L440.307 305.829C441.42 305.829 442.59 305.741 443.82 305.566C444.229 305.507 444.771 305.405 445.444 305.259C445.766 305.141 446.029 305.039 446.234 304.951C446.644 304.746 447.054 304.541 447.463 304.337C449.073 304.337 450.2 304.366 450.844 304.424C451.517 304.483 451.854 304.776 451.854 305.302V305.522ZM438.859 316.498L438.902 317.244C438.902 318.21 438.785 319.102 438.551 319.922C438.317 320.712 437.966 321.107 437.498 321.107C437.146 321.107 436.854 320.566 436.62 319.483C436.502 318.81 436.385 318.122 436.268 317.42C436.063 316.541 435.741 315.371 435.302 313.907C434.512 311.361 434.117 309.927 434.117 309.605L434.293 309.298C434.702 309.298 435.551 310.337 436.839 312.415C438.127 314.493 438.8 315.854 438.859 316.498ZM462.083 303.898L461.863 325.015C461.863 327.21 461.688 328.995 461.337 330.371C460.985 331.717 460.473 332.39 459.8 332.39C459.449 332.39 459.244 331.878 459.185 330.854C459.127 329.829 459.098 328.863 459.098 327.956V319L454.663 319.527C454.488 319.556 454.268 319.644 454.005 319.79C453.741 319.907 453.507 319.966 453.302 319.966C452.805 319.966 452.088 319.79 451.151 319.439C450.215 319.059 449.746 318.693 449.746 318.341C449.746 318.254 449.834 318.18 450.01 318.122C450.068 318.122 450.171 318.107 450.317 318.078C450.551 318.078 450.932 318.107 451.459 318.166C452.015 318.195 452.351 318.21 452.468 318.21L453.259 318.166C455.073 318.02 456.493 317.917 457.517 317.859C458.571 317.771 459.098 317.683 459.098 317.595V310.351L454.751 310.79C454.371 310.937 453.99 311.068 453.61 311.185C453.141 311.185 452.512 310.995 451.722 310.615C450.961 310.234 450.581 309.868 450.581 309.517C450.581 309.371 450.756 309.298 451.107 309.298L454.049 309.341C454.429 309.341 455.117 309.312 456.112 309.254C457.137 309.166 458.132 309.078 459.098 308.99V303.502C459.098 303.18 458.541 302.741 457.429 302.185C456.317 301.629 455.176 301.059 454.005 300.473C454.005 300.239 454.181 300.063 454.532 299.946C454.912 299.8 455.234 299.727 455.498 299.727H455.893C457.122 299.844 458.337 300.093 459.537 300.473C461.322 301.029 462.215 301.644 462.215 302.317C462.127 302.932 462.083 303.459 462.083 303.898ZM451.327 320.8C451.356 321.444 449.278 322.38 445.093 323.61C440.907 324.839 438.127 325.454 436.751 325.454C436.517 325.512 436.181 325.688 435.741 325.98C435.332 326.273 434.966 326.42 434.644 326.42C434.059 326.42 432.917 325.98 431.22 325.102C429.551 324.195 428.717 323.58 428.717 323.259C428.717 323.112 428.863 323.039 429.156 323.039C430.034 323.156 430.839 323.259 431.571 323.346C432.332 323.405 433.063 323.434 433.766 323.434L434.863 323.39C436.502 323.39 438.463 323.244 440.746 322.951C441.507 322.863 442.532 322.702 443.82 322.468C444.229 320.741 444.639 318.956 445.049 317.112C445.634 314.39 445.927 312.678 445.927 311.976V311.8C445.927 311.332 445.59 310.878 444.917 310.439C444.273 309.971 443.6 309.502 442.898 309.034C442.898 308.859 443.029 308.712 443.293 308.595C443.585 308.478 443.907 308.42 444.259 308.42C445.107 308.42 446.278 308.785 447.771 309.517C448.707 309.985 449.176 310.395 449.176 310.746C449.176 310.922 449.117 311.127 449 311.361C448.883 311.566 448.766 311.8 448.649 312.063C448.649 312.649 448.298 313.922 447.595 315.883C446.805 317.99 446.015 320.098 445.224 322.205L448.122 321.546C448.649 321.371 449.205 321.195 449.79 321.02C450.376 320.815 450.8 320.712 451.063 320.712L451.327 320.8ZM462.829 339.634L460.107 339.546L446.498 339.81C445.415 339.81 444.493 339.649 443.732 339.327C442.678 338.888 442.151 338.2 442.151 337.263L441.844 331.073C441.844 330.81 441.068 330.546 439.517 330.283C437.995 330.02 437.234 329.815 437.234 329.668C437.234 329.405 437.424 329.171 437.805 328.966C438.185 328.761 438.595 328.659 439.034 328.659L443.029 328.79C443.82 328.79 444.346 328.893 444.61 329.098C444.873 329.302 445.005 329.595 445.005 329.976L444.917 331.161L444.961 336.561C444.961 337.234 445.02 337.688 445.137 337.922C445.283 338.185 445.663 338.317 446.278 338.317L457.561 338.141C457.737 338.141 458.132 337.98 458.746 337.659C458.951 337.571 459.259 337.395 459.668 337.132L461.073 337.088C462.361 337.088 463.385 337.176 464.146 337.351C464.937 337.556 465.332 337.893 465.332 338.361C465.302 338.829 465.054 339.151 464.585 339.327C464.146 339.532 463.561 339.634 462.829 339.634ZM453.434 388.044L453.171 388.088C452.79 388.088 451.854 387.341 450.361 385.849C448.898 384.327 447.463 382.834 446.059 381.371C444.537 379.79 443.688 379 443.512 379C442.634 379.849 441.888 380.537 441.273 381.063C439.517 382.615 437.688 384.078 435.785 385.454C433.912 386.829 432.273 387.956 430.868 388.834C429.2 389.859 428.132 390.371 427.663 390.371L427.4 390.151C427.4 389.946 427.824 389.537 428.673 388.922C430.956 387.224 432.141 386.346 432.229 386.288C434.044 384.912 435.873 383.361 437.717 381.634C439.678 379.82 441.463 377.873 443.073 375.795C444.215 374.302 445.21 372.824 446.059 371.361C446.351 370.776 446.659 370.19 446.981 369.605L441.8 369.868L436.751 370.307C436.576 370.424 436.385 370.541 436.181 370.659C435.976 370.746 435.727 370.79 435.434 370.79C434.995 370.79 434.073 370.454 432.668 369.78C431.293 369.107 430.605 368.639 430.605 368.376C430.605 368.288 430.722 368.215 430.956 368.156C431.015 368.156 431.146 368.141 431.351 368.112C432.083 368.112 433.21 368.171 434.732 368.288C436.254 368.405 437.395 368.463 438.156 368.463C440.41 368.463 442.62 368.39 444.785 368.244C445.166 368.244 445.649 368.2 446.234 368.112C446.322 368.112 446.527 368.054 446.849 367.937C447.581 367.673 447.99 367.541 448.078 367.541C448.488 367.541 449.102 367.717 449.922 368.068C450.771 368.42 451.195 368.756 451.195 369.078C451.195 369.283 451.063 369.488 450.8 369.693C450.537 369.898 450.288 370.088 450.054 370.263C449.673 370.907 449.366 371.405 449.132 371.756C448.459 372.78 447.844 373.673 447.288 374.434C446.937 374.902 446.337 375.62 445.488 376.585C444.756 377.405 444.39 377.859 444.39 377.946L446.805 380.054C447.127 380.317 447.654 380.639 448.385 381.02C449.117 381.4 449.863 381.766 450.624 382.117C451.649 383.083 452.468 384.005 453.083 384.883C453.727 385.761 454.049 386.478 454.049 387.034C454.049 387.502 453.844 387.839 453.434 388.044ZM461.995 362.756L461.776 396.254C461.776 397.307 461.688 398.273 461.512 399.151C461.22 400.615 460.766 401.346 460.151 401.346C459.917 401.346 459.727 401.098 459.581 400.6C459.434 400.132 459.361 399.327 459.361 398.185L459.098 363.415C459.098 363.18 458.498 362.785 457.298 362.229C456.098 361.644 454.868 361.044 453.61 360.429C453.61 360.224 453.815 360.049 454.224 359.902C454.634 359.727 454.971 359.639 455.234 359.639C456.083 359.639 457.341 359.873 459.01 360.341C461.059 360.927 462.083 361.527 462.083 362.141L461.995 362.756Z" fill="black"/>
<path d="M176.298 438.839C176.298 439.659 175.992 440.38 175.38 441.005C174.691 441.707 173.8 442.059 172.707 442.059C171.706 442.059 170.808 441.772 170.015 441.2C169.143 440.576 168.707 439.782 168.707 438.82C168.707 437.506 169.293 436.563 170.463 435.99C170.854 435.808 171.439 435.652 172.22 435.522C172.272 435.47 172.298 435.398 172.298 435.307C172.298 435.242 172.285 435.164 172.259 435.073C172.233 435.008 172.213 434.943 172.2 434.878L172.337 434.8C172.506 434.8 172.701 434.885 172.922 435.054C173.143 435.21 173.254 435.372 173.254 435.541C173.93 435.763 174.437 435.977 174.776 436.185C175.79 436.836 176.298 437.72 176.298 438.839ZM180.785 435.034L180.766 448.4C180.766 449.18 180.733 449.824 180.668 450.332C180.538 451.372 180.291 451.893 179.927 451.893C179.784 451.893 179.686 451.763 179.634 451.502C179.582 451.242 179.556 450.911 179.556 450.507L179.478 435.015C179.478 434.82 179.088 434.566 178.307 434.254C177.54 433.941 177.156 433.759 177.156 433.707C177.156 433.59 177.241 433.512 177.41 433.473C177.592 433.421 177.761 433.395 177.917 433.395C178.463 433.395 179.029 433.473 179.615 433.629C180.434 433.85 180.844 434.143 180.844 434.507L180.785 435.034ZM180.2 442.215C180.2 442.41 179.68 442.67 178.639 442.995C177.793 443.255 177.085 443.47 176.512 443.639C175.94 443.808 175.276 443.977 174.522 444.146C174.249 444.211 173.878 444.289 173.41 444.38L173.371 447.288C173.371 448.159 173.293 448.875 173.137 449.434C172.98 449.993 172.772 450.273 172.512 450.273C172.408 450.273 172.324 450.117 172.259 449.805C172.207 449.48 172.18 449.141 172.18 448.79L172.141 444.576L169.605 445.044C169.332 445.161 169.059 445.272 168.785 445.376C168.616 445.376 168.122 445.18 167.302 444.79C166.496 444.387 166.093 444.133 166.093 444.029C166.093 443.938 166.197 443.893 166.405 443.893C166.626 443.893 166.815 443.899 166.971 443.912C167.764 443.977 168.265 444.01 168.473 444.01C169.501 444.01 170.541 443.945 171.595 443.815C172.662 443.685 173.826 443.502 175.088 443.268C176.024 443.112 176.902 442.937 177.722 442.741C179.296 442.377 180.096 442.195 180.122 442.195L180.2 442.215ZM175.205 438.917L175.224 438.624C175.224 437.857 174.886 437.193 174.21 436.634C173.989 436.452 173.65 436.25 173.195 436.029C173.169 436.211 172.629 436.459 171.576 436.771C170.522 437.07 169.995 437.701 169.995 438.663C169.995 439.366 170.262 439.945 170.795 440.4C171.328 440.855 171.959 441.083 172.688 441.083C173.52 441.083 174.164 440.823 174.62 440.302C174.958 439.912 175.153 439.45 175.205 438.917ZM197.411 436.146L197.392 443.424C197.392 444.075 197.333 444.543 197.216 444.829C197.112 445.115 196.963 445.259 196.768 445.259C196.638 445.259 196.527 445.037 196.436 444.595C196.345 444.153 196.299 443.691 196.299 443.21L196.26 441.161L194.797 441.356C194.732 441.395 194.68 441.421 194.641 441.434C194.498 441.499 194.374 441.532 194.27 441.532C194.088 441.532 193.782 441.441 193.353 441.259C192.937 441.063 192.729 440.914 192.729 440.81C192.729 440.745 192.846 440.712 193.08 440.712L194.036 440.732C194.4 440.732 194.881 440.693 195.48 440.615C195.675 440.589 195.935 440.55 196.26 440.498L196.182 436.166C196.182 436.101 195.877 435.958 195.265 435.737C194.654 435.515 194.355 435.372 194.368 435.307C194.368 435.229 194.426 435.158 194.543 435.093C194.66 435.028 194.816 434.995 195.011 434.995C195.779 435.073 196.254 435.132 196.436 435.171C197.112 435.314 197.451 435.528 197.451 435.815L197.411 436.146ZM200.787 434.839L200.748 444.654C200.748 445.148 200.716 445.577 200.651 445.941C200.52 446.709 200.28 447.093 199.929 447.093C199.785 447.093 199.694 446.872 199.655 446.429C199.616 445.974 199.597 445.571 199.597 445.22L199.558 434.937C199.558 434.846 199.337 434.709 198.894 434.527C198.452 434.332 197.997 434.137 197.529 433.941C197.529 433.811 197.587 433.72 197.704 433.668C197.834 433.603 198.016 433.571 198.251 433.571C198.745 433.571 199.239 433.636 199.733 433.766C200.449 433.948 200.807 434.228 200.807 434.605L200.787 434.839ZM193.353 438.195C193.249 438.429 193.164 438.618 193.099 438.761C192.891 439.203 192.716 439.548 192.572 439.795L191.89 440.868L192.319 441.493C192.826 442.052 193.184 442.462 193.392 442.722C193.769 443.19 193.958 443.717 193.958 444.302C193.958 444.511 193.919 444.68 193.841 444.81C193.763 444.927 193.672 444.985 193.568 444.985C193.398 444.985 193.21 444.823 193.002 444.498C192.885 444.315 192.729 444.003 192.533 443.561L191.48 441.317C191.181 441.668 190.933 441.948 190.738 442.156C190.114 442.846 189.581 443.366 189.138 443.717C188.449 444.302 187.766 444.823 187.09 445.278C186.478 445.694 186.088 445.902 185.919 445.902L185.841 445.824C185.841 445.772 186.439 445.22 187.636 444.166C188.377 443.515 189.008 442.872 189.529 442.234C190.335 441.259 190.992 440.244 191.499 439.19C191.668 438.839 191.844 438.403 192.026 437.883L189.509 438.195C189.405 438.247 189.281 438.306 189.138 438.371C188.995 438.423 188.846 438.449 188.69 438.449C188.494 438.449 188.15 438.319 187.655 438.059C187.161 437.785 186.914 437.584 186.914 437.454C186.914 437.402 186.972 437.376 187.09 437.376H187.168C187.402 437.376 187.746 437.402 188.202 437.454C188.67 437.493 188.989 437.512 189.158 437.512C189.782 437.512 190.42 437.473 191.07 437.395C191.278 437.369 191.486 437.343 191.694 437.317C191.916 437.278 192.078 437.239 192.182 437.2C192.286 437.161 192.41 437.115 192.553 437.063C192.735 437.063 192.989 437.148 193.314 437.317C193.652 437.473 193.821 437.616 193.821 437.746C193.808 437.811 193.75 437.883 193.646 437.961C193.555 438.039 193.457 438.117 193.353 438.195ZM201.841 452.049L201.743 452.068C201.47 452.068 200.891 451.704 200.007 450.976C199.421 450.494 198.66 449.818 197.724 448.946C196.917 448.205 196.488 447.834 196.436 447.834C196.163 448.146 195.922 448.4 195.714 448.595C195.064 449.22 194.329 449.785 193.509 450.293C192.69 450.8 191.87 451.229 191.051 451.58C190.244 451.945 189.704 452.127 189.431 452.127L189.314 452.049C189.314 451.984 189.86 451.639 190.953 451.015C191.733 450.572 192.481 450.085 193.197 449.551C193.99 448.979 194.673 448.283 195.246 447.463C195.428 447.19 195.642 446.839 195.89 446.41C195.89 446.332 195.798 446.208 195.616 446.039C195.447 445.87 195.272 445.694 195.09 445.512C195.09 445.395 195.207 445.337 195.441 445.337C195.714 445.337 196.098 445.447 196.592 445.668C197.086 445.889 197.333 446.098 197.333 446.293C197.333 446.358 197.32 446.423 197.294 446.488C197.255 446.553 197.229 446.598 197.216 446.624L196.787 447.346L198.055 448.322C198.368 448.556 198.758 448.81 199.226 449.083C199.564 449.265 199.903 449.447 200.241 449.629C200.722 449.98 201.112 450.312 201.411 450.624C201.854 451.08 202.075 451.437 202.075 451.698C202.075 451.867 201.997 451.984 201.841 452.049ZM218.408 440.341C218.408 441.447 217.901 442.364 216.886 443.093C215.976 443.743 214.942 444.068 213.784 444.068C212.613 444.068 211.566 443.724 210.642 443.034C209.641 442.28 209.14 441.33 209.14 440.185C209.14 439.041 209.511 438.117 210.252 437.415C210.76 436.933 211.456 436.569 212.34 436.322C212.86 436.179 213.231 436.107 213.452 436.107C213.556 436.003 213.608 435.88 213.608 435.737C213.608 435.659 213.589 435.561 213.55 435.444C213.524 435.327 213.511 435.262 213.511 435.249C213.511 435.158 213.563 435.112 213.667 435.112C213.875 435.112 214.07 435.229 214.252 435.463C214.434 435.698 214.525 435.925 214.525 436.146C215.384 436.146 216.269 436.569 217.179 437.415C217.999 438.182 218.408 439.158 218.408 440.341ZM223.345 447.893C223.345 448.088 223.195 448.231 222.896 448.322C222.597 448.4 222.2 448.439 221.706 448.439L219.325 448.38C218.857 448.38 217.999 448.4 216.75 448.439C215.514 448.465 214.779 448.478 214.545 448.478C212.815 448.478 211.39 448.53 210.272 448.634C209.647 448.686 209.192 448.751 208.906 448.829C208.815 448.829 208.704 448.868 208.574 448.946C208.275 449.128 208.073 449.22 207.969 449.22C207.709 449.22 207.163 449.044 206.33 448.693C205.511 448.328 205.101 448.055 205.101 447.873C205.101 447.782 205.173 447.737 205.316 447.737C205.823 447.802 206.389 447.86 207.013 447.912C207.651 447.951 208.288 447.971 208.925 447.971H209.433C209.901 447.971 211.488 447.925 214.194 447.834C216.912 447.743 218.304 447.678 218.369 447.639C218.59 447.639 218.883 447.58 219.247 447.463C219.612 447.333 219.976 447.203 220.34 447.073C221.29 447.073 221.953 447.106 222.33 447.171C223.007 447.288 223.345 447.528 223.345 447.893ZM217.296 440.517L217.316 440.127C217.316 438.995 216.828 438.085 215.852 437.395C215.527 437.174 215.033 436.94 214.369 436.693C214.317 436.81 214.233 436.914 214.116 437.005C214.012 437.083 213.849 437.141 213.628 437.18C212.756 437.363 212.106 437.584 211.677 437.844C210.844 438.364 210.428 439.125 210.428 440.127C210.428 441.011 210.799 441.727 211.54 442.273C212.203 442.767 212.997 443.015 213.921 443.015C214.727 443.015 215.456 442.8 216.106 442.371C216.821 441.902 217.218 441.285 217.296 440.517ZM242.664 448.049C242.664 448.309 242.566 448.491 242.371 448.595C242.189 448.686 241.916 448.732 241.552 448.732C241.356 448.732 241.025 448.712 240.556 448.673C240.088 448.634 239.73 448.615 239.483 448.615H238.41C238.189 448.615 237.558 448.628 236.517 448.654C235.477 448.68 234.553 448.693 233.747 448.693C232.433 448.693 231.126 448.764 229.825 448.907C229.395 448.946 228.875 449.018 228.264 449.122C228.238 449.122 228.14 449.167 227.971 449.259C227.815 449.35 227.665 449.395 227.522 449.395C227.262 449.395 226.742 449.22 225.961 448.868C225.194 448.504 224.81 448.25 224.81 448.107C224.81 448.029 224.895 447.99 225.064 447.99C225.584 448.042 226.143 448.101 226.742 448.166C227.34 448.218 227.821 448.244 228.186 448.244L233.161 448.166L233.083 444.615L230.839 444.654C230.254 444.654 229.818 444.589 229.532 444.459C229.103 444.263 228.888 443.906 228.888 443.385V441.063C228.888 440.868 228.602 440.693 228.03 440.537C227.457 440.38 227.171 440.25 227.171 440.146C227.171 440.016 227.282 439.932 227.503 439.893C227.737 439.854 227.978 439.834 228.225 439.834C228.459 439.834 228.804 439.873 229.259 439.951C229.714 440.029 230.02 440.068 230.176 440.068C230.54 440.042 230.846 440.029 231.093 440.029C232.056 439.99 232.784 439.971 233.278 439.971L237.083 439.737C237.135 439.567 237.168 439.424 237.181 439.307C237.246 438.956 237.278 438.631 237.278 438.332L237.395 436.556C236.862 436.595 236.257 436.634 235.581 436.673C234.904 436.699 234.208 436.712 233.493 436.712L230.469 436.946C230.443 436.946 230.352 436.998 230.195 437.102C230.039 437.193 229.877 437.239 229.708 437.239C229.46 437.239 229.005 437.089 228.342 436.79C227.678 436.478 227.347 436.25 227.347 436.107C227.347 436.055 227.399 436.023 227.503 436.01C227.516 436.01 227.548 436.01 227.6 436.01C228.108 436.062 228.634 436.114 229.181 436.166C229.727 436.205 230.163 436.224 230.488 436.224C231.763 436.224 233.22 436.172 234.859 436.068C235.405 436.042 236.095 435.99 236.927 435.912C236.979 435.912 237.109 435.867 237.317 435.776C237.526 435.672 237.643 435.62 237.669 435.62C237.838 435.62 238.117 435.704 238.508 435.873C238.911 436.029 239.113 436.179 239.113 436.322C239.113 436.4 239.041 436.511 238.898 436.654C238.755 436.784 238.683 436.862 238.683 436.888C238.618 437.135 238.573 437.33 238.547 437.473C238.469 437.772 238.371 438.104 238.254 438.468C238.15 438.833 238.033 439.158 237.903 439.444C237.89 439.496 237.864 439.554 237.825 439.62C238.046 439.633 238.208 439.646 238.313 439.659C238.638 439.724 238.8 439.841 238.8 440.01C238.8 440.166 238.703 440.27 238.508 440.322C238.326 440.374 238.117 440.4 237.883 440.4L230.156 440.693V443.424C230.156 443.698 230.189 443.873 230.254 443.951C230.319 444.029 230.482 444.068 230.742 444.068L233.474 444.029L236.264 443.873C236.563 443.73 236.797 443.613 236.966 443.522C237.148 443.418 237.272 443.366 237.337 443.366L238.43 443.327C238.755 443.327 239.015 443.359 239.21 443.424C239.405 443.476 239.503 443.62 239.503 443.854C239.503 444.127 239.373 444.302 239.113 444.38C238.865 444.459 238.482 444.498 237.961 444.498L234.43 444.556L234.352 448.068L236.166 448.029C236.66 448.029 237.174 448.003 237.708 447.951C238.254 447.899 238.573 447.86 238.664 447.834C238.781 447.834 238.95 447.782 239.171 447.678C239.392 447.574 239.633 447.463 239.893 447.346C240.647 447.346 241.298 447.392 241.844 447.483C242.391 447.561 242.664 447.75 242.664 448.049ZM182.268 479.776C182.216 479.945 182.041 480.029 181.741 480.029C181.468 480.029 181.078 479.958 180.571 479.815C180.063 479.672 179.576 479.528 179.107 479.385C177.989 479.099 177.091 478.872 176.415 478.702C175.595 478.494 175.172 478.39 175.146 478.39C174.795 478.559 174.346 478.774 173.8 479.034C173.254 479.281 172.714 479.509 172.18 479.717C171.517 479.977 170.646 480.263 169.566 480.576C168.486 480.875 167.764 481.024 167.4 481.024C167.335 481.024 167.289 481.024 167.263 481.024C167.172 481.011 167.127 480.972 167.127 480.907C167.868 480.634 168.837 480.276 170.034 479.834C171.322 479.353 172.623 478.735 173.937 477.98C174.912 477.421 175.829 476.784 176.688 476.068C176.974 475.834 177.306 475.535 177.683 475.171L174.932 475.288C174.177 475.288 173.494 475.314 172.883 475.366C172.285 475.405 171.914 475.444 171.771 475.483C171.745 475.483 171.654 475.528 171.498 475.62C171.354 475.711 171.211 475.756 171.068 475.756C170.834 475.756 170.366 475.607 169.663 475.307C168.961 474.995 168.61 474.787 168.61 474.683C168.61 474.631 168.662 474.598 168.766 474.585C168.779 474.585 168.811 474.585 168.863 474.585C169.176 474.585 169.65 474.611 170.288 474.663C170.925 474.702 171.361 474.722 171.595 474.722C172.766 474.722 174.08 474.689 175.537 474.624C176.044 474.611 176.714 474.572 177.546 474.507C177.637 474.507 177.774 474.468 177.956 474.39C178.138 474.312 178.242 474.273 178.268 474.273C178.528 474.273 178.906 474.384 179.4 474.605C179.699 474.735 179.849 474.846 179.849 474.937C179.849 475.054 179.751 475.164 179.556 475.268C179.426 475.333 179.302 475.392 179.185 475.444C179.003 475.626 178.847 475.776 178.717 475.893C178.379 476.205 177.943 476.563 177.41 476.966C177.098 477.213 176.701 477.48 176.22 477.766C176.141 477.818 176.024 477.883 175.868 477.961L178.405 478.527C178.496 478.527 178.691 478.507 178.99 478.468C179.302 478.416 179.517 478.39 179.634 478.39C179.959 478.39 180.48 478.533 181.195 478.82C181.924 479.093 182.288 479.372 182.288 479.659L182.268 479.776ZM184.22 482.839C184.22 483.073 184.083 483.236 183.81 483.327C183.55 483.418 183.172 483.463 182.678 483.463L180.727 483.405L175.966 483.522L175.868 489.824C175.868 490.436 175.79 490.976 175.634 491.444C175.478 491.925 175.315 492.166 175.146 492.166C175.016 492.166 174.906 491.997 174.815 491.659C174.737 491.333 174.698 490.813 174.698 490.098L174.6 483.58C173.846 483.58 172.941 483.62 171.888 483.698C170.847 483.763 170.099 483.854 169.644 483.971C169.54 484.036 169.442 484.094 169.351 484.146C169.26 484.185 169.156 484.205 169.039 484.205C168.714 484.205 168.148 484.049 167.341 483.737C166.548 483.424 166.151 483.171 166.151 482.976C166.151 482.898 166.223 482.859 166.366 482.859C166.379 482.859 166.828 482.904 167.712 482.995C168.22 483.047 168.61 483.073 168.883 483.073C170.782 483.073 172.571 483.041 174.249 482.976C175.927 482.898 177.137 482.833 177.878 482.78C178.633 482.715 179.25 482.657 179.732 482.605C179.888 482.605 180.135 482.559 180.473 482.468C180.811 482.364 181.163 482.26 181.527 482.156H181.605C182.281 482.156 182.789 482.182 183.127 482.234C183.855 482.338 184.22 482.54 184.22 482.839ZM200.787 477.649C200.787 477.727 200.755 477.818 200.69 477.922C200.625 478.013 200.553 478.117 200.475 478.234C200.176 480.563 199.811 482.488 199.382 484.01C198.953 485.532 198.537 486.325 198.133 486.39C197.938 486.39 197.841 486.338 197.841 486.234C197.971 485.727 198.114 485.115 198.27 484.4C198.426 483.685 198.556 482.904 198.66 482.059C198.712 481.564 198.771 480.901 198.836 480.068C198.901 479.236 198.933 478.514 198.933 477.902C198.725 477.915 198.55 477.922 198.407 477.922C197.249 477.987 196.286 478.02 195.519 478.02C194.764 478.02 193.769 478.078 192.533 478.195C192.117 478.234 191.551 478.299 190.836 478.39C190.771 478.39 190.66 478.442 190.504 478.546C190.348 478.637 190.205 478.683 190.075 478.683C189.789 478.683 189.327 478.54 188.69 478.254C188.065 477.967 187.753 477.707 187.753 477.473C187.792 477.408 187.948 477.376 188.221 477.376L191.402 477.493C191.857 477.493 192.553 477.473 193.49 477.434C194.439 477.382 195.096 477.356 195.46 477.356L198.602 477.161C198.68 477.148 198.803 477.102 198.972 477.024C199.142 476.946 199.259 476.907 199.324 476.907C199.493 476.907 199.779 476.992 200.182 477.161C200.585 477.33 200.787 477.493 200.787 477.649ZM203.421 488.205C203.421 488.439 203.337 488.602 203.168 488.693C202.998 488.771 202.738 488.81 202.387 488.81C202.062 488.81 201.795 488.803 201.587 488.79C200.559 488.725 199.948 488.693 199.753 488.693C199.259 488.693 198.101 488.738 196.28 488.829C195.239 488.881 194.465 488.907 193.958 488.907C192.8 488.907 191.727 488.985 190.738 489.141C190.413 489.193 190.023 489.278 189.568 489.395C189.542 489.395 189.346 489.48 188.982 489.649C188.839 489.714 188.703 489.746 188.572 489.746C188.325 489.746 187.779 489.558 186.933 489.18C186.088 488.79 185.665 488.511 185.665 488.341C185.665 488.263 185.782 488.224 186.016 488.224C186.55 488.276 187.116 488.322 187.714 488.361C188.325 488.4 188.846 488.42 189.275 488.42C190.042 488.42 191.018 488.38 192.202 488.302C192.41 488.289 192.683 488.27 193.021 488.244L192.943 483.249C192.943 483.067 192.664 482.865 192.104 482.644C191.558 482.423 191.285 482.267 191.285 482.176C191.285 482.098 191.356 482.026 191.499 481.961C191.642 481.896 191.785 481.863 191.929 481.863H192.007C192.657 481.863 193.145 481.896 193.47 481.961C194.12 482.091 194.446 482.332 194.446 482.683L194.387 483.229L194.251 488.166L199.265 487.834C199.408 487.834 199.688 487.763 200.104 487.62C200.52 487.476 200.774 487.405 200.865 487.405C201.724 487.405 202.361 487.457 202.777 487.561C203.207 487.665 203.421 487.88 203.421 488.205ZM219.462 475.405L219.403 480.302L220.321 480.263C220.542 480.159 220.724 480.062 220.867 479.971C221.192 479.776 221.589 479.678 222.057 479.678C222.395 479.678 222.701 479.717 222.974 479.795C223.247 479.86 223.384 480.023 223.384 480.283C223.384 480.517 223.28 480.673 223.072 480.751C222.877 480.829 222.59 480.868 222.213 480.868L221.179 480.849C220.789 480.849 220.444 480.855 220.145 480.868C219.859 480.881 219.605 480.901 219.384 480.927L219.345 481.649C219.345 482.221 219.299 482.689 219.208 483.054C219.065 483.613 218.844 483.893 218.545 483.893C218.428 483.893 218.337 483.691 218.272 483.288C218.22 482.872 218.194 482.416 218.194 481.922L218.135 475.229C218.135 474.943 217.751 474.644 216.984 474.332C216.229 474.02 215.852 473.805 215.852 473.688C215.852 473.571 215.937 473.493 216.106 473.454C216.288 473.402 216.464 473.376 216.633 473.376C217.114 473.376 217.68 473.486 218.33 473.707C219.137 473.98 219.54 474.28 219.54 474.605C219.54 474.657 219.527 474.774 219.501 474.956C219.475 475.138 219.462 475.288 219.462 475.405ZM211.169 488.732L211.033 486.39C211.033 486.234 210.792 486.065 210.311 485.883C209.829 485.701 209.589 485.577 209.589 485.512C209.589 485.382 209.725 485.304 209.999 485.278C210.272 485.252 210.48 485.233 210.623 485.22C210.87 485.22 211.137 485.246 211.423 485.298C211.722 485.35 212.054 485.402 212.418 485.454L214.935 485.415L217.316 485.239C217.381 485.239 217.53 485.167 217.764 485.024C217.999 484.881 218.194 484.81 218.35 484.81L219.111 484.771C219.397 484.771 219.644 484.81 219.852 484.888C220.073 484.966 220.184 485.128 220.184 485.376C220.184 485.584 220.086 485.727 219.891 485.805C219.696 485.87 219.442 485.902 219.13 485.902L218.389 485.883L212.438 486.117V489.063C212.438 489.35 212.516 489.551 212.672 489.668C212.828 489.772 213.056 489.824 213.355 489.824L217.433 489.727C217.719 489.727 218.005 489.636 218.291 489.454C218.577 489.259 218.747 489.161 218.799 489.161L219.579 489.141C220.021 489.141 220.34 489.167 220.535 489.22C220.925 489.324 221.121 489.538 221.121 489.863C221.121 490.098 220.99 490.254 220.73 490.332C220.47 490.423 220.112 490.468 219.657 490.468L218.096 490.429L213.14 490.468C212.49 490.468 212.008 490.345 211.696 490.098C211.345 489.811 211.169 489.356 211.169 488.732ZM213.706 482.644L208.964 482.898C208.938 483.041 208.912 483.151 208.886 483.229C208.717 483.724 208.483 483.971 208.184 483.971C208.054 483.971 207.956 483.841 207.891 483.58C207.839 483.32 207.8 483.028 207.774 482.702L207.599 477.298C207.599 477.037 207.299 476.816 206.701 476.634C206.116 476.452 205.823 476.309 205.823 476.205C205.823 476.075 205.934 475.99 206.155 475.951C206.389 475.912 206.629 475.893 206.877 475.893H207.501C208.099 475.893 208.49 475.99 208.672 476.185C208.854 476.38 208.945 476.667 208.945 477.044V478.449L213.589 478.254L213.53 476.595C213.53 476.361 213.283 476.146 212.789 475.951C212.295 475.756 212.047 475.613 212.047 475.522C212.047 475.418 212.132 475.346 212.301 475.307C212.47 475.255 212.62 475.229 212.75 475.229C213.244 475.229 213.686 475.275 214.077 475.366C214.675 475.509 214.974 475.73 214.974 476.029C214.974 476.107 214.961 476.231 214.935 476.4C214.909 476.569 214.896 476.693 214.896 476.771L214.877 481.395C214.877 482.007 214.805 482.501 214.662 482.878C214.532 483.242 214.317 483.424 214.018 483.424C213.901 483.424 213.81 483.255 213.745 482.917C213.745 482.865 213.732 482.774 213.706 482.644ZM208.984 479.034V482.273L213.667 482.02L213.608 478.898L208.984 479.034ZM239.991 479.19C239.939 479.411 239.743 479.554 239.405 479.62C239.067 479.685 238.657 479.717 238.176 479.717C237.877 479.73 237.623 479.737 237.415 479.737C235.776 479.802 234.495 479.834 233.571 479.834H230.274C229.623 479.834 229.174 479.724 228.927 479.502C228.68 479.281 228.556 478.859 228.556 478.234L228.498 476.244C228.498 476.036 228.192 475.841 227.581 475.659C226.982 475.463 226.677 475.34 226.664 475.288C226.664 475.119 226.755 475.002 226.937 474.937C227.132 474.859 227.373 474.82 227.659 474.82H228.01C228.569 474.82 228.992 474.859 229.278 474.937C229.747 475.067 229.981 475.301 229.981 475.639L229.922 476.771V478.254C229.922 478.774 230.078 479.06 230.391 479.112C230.716 479.151 230.989 479.177 231.21 479.19H233.766C234.221 479.19 234.729 479.164 235.288 479.112C235.86 479.06 236.192 479.015 236.283 478.976C236.413 478.976 236.621 478.891 236.908 478.722C237.207 478.54 237.395 478.449 237.474 478.449C238.371 478.449 239.015 478.488 239.405 478.566C239.808 478.631 240.01 478.8 240.01 479.073L239.991 479.19ZM242.644 482.78C242.644 483.119 242.579 483.34 242.449 483.444C242.332 483.535 242.078 483.58 241.688 483.58C241.389 483.58 241.142 483.574 240.947 483.561C239.971 483.496 239.334 483.463 239.034 483.463H238.391C238.065 483.463 237.135 483.496 235.6 483.561C234.989 483.587 234.417 483.6 233.883 483.6C232.869 483.6 231.75 483.646 230.527 483.737C230.111 483.763 229.565 483.815 228.888 483.893C228.641 483.893 228.4 483.951 228.166 484.068C227.932 484.185 227.763 484.244 227.659 484.244C227.36 484.244 226.839 484.055 226.098 483.678C225.356 483.301 224.986 483.008 224.986 482.8C225.025 482.735 225.103 482.702 225.22 482.702C225.662 482.78 226.156 482.852 226.703 482.917C227.249 482.982 227.763 483.015 228.244 483.015H229.2C230.202 483.015 231.971 482.982 234.508 482.917C237.057 482.839 238.469 482.754 238.742 482.663C238.95 482.663 239.171 482.624 239.405 482.546C239.639 482.455 239.88 482.358 240.127 482.254C241.805 482.254 242.644 482.429 242.644 482.78ZM240.205 489.824C240.153 490.02 239.978 490.143 239.678 490.195C239.392 490.26 239.047 490.293 238.644 490.293L234.41 490.312L231.152 490.371C230.514 490.371 230.02 490.215 229.669 489.902C229.33 489.577 229.161 489.109 229.161 488.498V486.449C229.161 486.293 228.966 486.143 228.576 486C228.199 485.857 227.808 485.714 227.405 485.571C227.405 485.428 227.483 485.33 227.639 485.278C227.795 485.213 227.997 485.18 228.244 485.18L229.142 485.22C229.298 485.22 229.415 485.22 229.493 485.22C229.844 485.22 230.104 485.265 230.274 485.356C230.443 485.434 230.527 485.642 230.527 485.98L230.488 486.976V488.771C230.488 489.135 230.527 489.376 230.605 489.493C230.683 489.597 230.885 489.649 231.21 489.649L234.488 489.629C234.644 489.629 234.768 489.629 234.859 489.629C235.002 489.629 235.106 489.629 235.171 489.629C235.288 489.629 235.379 489.629 235.444 489.629C235.548 489.629 235.62 489.629 235.659 489.629C236.231 489.629 236.55 489.61 236.615 489.571C236.784 489.571 236.986 489.519 237.22 489.415C237.454 489.298 237.695 489.18 237.942 489.063C238.709 489.063 239.275 489.109 239.639 489.2C240.017 489.291 240.205 489.499 240.205 489.824ZM175.849 518.312V518.41C175.849 518.527 175.81 518.657 175.732 518.8C175.654 518.943 175.608 519.041 175.595 519.093L174.854 523.795C174.945 523.795 175.016 523.802 175.068 523.815C175.393 523.893 175.569 524.049 175.595 524.283C175.595 524.439 175.511 524.55 175.341 524.615C175.185 524.667 174.977 524.693 174.717 524.693L174.132 524.673C173.351 524.673 172.363 524.706 171.166 524.771C170.776 524.784 170.255 524.816 169.605 524.868C169.605 525.233 169.533 525.545 169.39 525.805C169.26 526.065 169.085 526.195 168.863 526.195C168.72 526.195 168.603 526.026 168.512 525.688C168.486 525.584 168.454 525.408 168.415 525.161L168.005 519.288C168.005 519.08 167.836 518.898 167.498 518.741C167.172 518.585 166.841 518.423 166.502 518.254C166.502 518.124 166.62 518.039 166.854 518C167.101 517.948 167.322 517.922 167.517 517.922C167.712 517.922 167.946 517.941 168.22 517.98C168.844 518.072 169.234 518.117 169.39 518.117C169.911 518.117 170.717 518.104 171.81 518.078C172.915 518.039 173.501 518.007 173.566 517.98C173.67 517.98 173.793 517.954 173.937 517.902C174.08 517.837 174.229 517.772 174.385 517.707C174.554 517.707 174.834 517.779 175.224 517.922C175.628 518.065 175.836 518.195 175.849 518.312ZM184.298 522.878C184.298 523.086 184.2 523.229 184.005 523.307C183.823 523.372 183.563 523.405 183.224 523.405L181.995 523.385C181.514 523.385 181.052 523.405 180.61 523.444C180.532 523.444 180.428 523.457 180.298 523.483L180.259 528.81C180.259 529.902 180.18 530.689 180.024 531.171C179.868 531.665 179.654 531.912 179.38 531.912C179.289 531.912 179.211 531.704 179.146 531.288C179.094 530.885 179.068 530.442 179.068 529.961L178.99 515.327C178.99 515.08 178.58 514.761 177.761 514.371C176.954 513.98 176.551 513.746 176.551 513.668C176.551 513.577 176.636 513.512 176.805 513.473C176.987 513.421 177.137 513.395 177.254 513.395C177.8 513.395 178.418 513.506 179.107 513.727C179.953 514 180.376 514.319 180.376 514.683C180.376 514.761 180.363 514.891 180.337 515.073C180.311 515.255 180.298 515.398 180.298 515.502V522.78L180.922 522.702C181.065 522.689 181.436 522.553 182.034 522.293C182.333 522.163 182.633 522.098 182.932 522.098C183.335 522.098 183.66 522.156 183.907 522.273C184.167 522.377 184.298 522.579 184.298 522.878ZM174.21 518.605L169.39 518.741L169.527 524.224L173.995 523.99C174.047 523.678 174.08 523.411 174.093 523.19C174.158 522.527 174.19 521.857 174.19 521.18L174.21 518.605ZM198.524 517.415L198.543 517.649C198.543 518.624 198.12 519.424 197.275 520.049C196.507 520.621 195.623 520.907 194.621 520.907C193.372 520.907 192.358 520.589 191.577 519.951C190.81 519.301 190.426 518.507 190.426 517.571V517.415C190.426 516.218 191.018 515.314 192.202 514.702C192.592 514.507 193.184 514.319 193.977 514.137C194.003 514.111 194.029 514.072 194.055 514.02C194.055 514.007 194.062 513.98 194.075 513.941C194.075 513.863 194.042 513.772 193.977 513.668C193.925 513.564 193.899 513.506 193.899 513.493C193.899 513.454 193.932 513.421 193.997 513.395C194.01 513.395 194.029 513.389 194.055 513.376C194.225 513.376 194.433 513.467 194.68 513.649C194.927 513.818 195.051 513.98 195.051 514.137C195.779 514.371 196.325 514.598 196.69 514.82C197.808 515.496 198.42 516.361 198.524 517.415ZM203.714 522.585C203.714 522.807 203.603 522.963 203.382 523.054C203.174 523.132 202.862 523.171 202.446 523.171C201.99 523.171 201.379 523.158 200.611 523.132C199.857 523.093 199.402 523.073 199.246 523.073C198.764 523.073 198.12 523.086 197.314 523.112C196.52 523.125 195.649 523.138 194.699 523.151C193.177 523.151 191.987 523.184 191.129 523.249C190.283 523.301 189.646 523.379 189.216 523.483C189.138 523.483 188.982 523.541 188.748 523.659C188.514 523.776 188.319 523.834 188.163 523.834C187.929 523.834 187.428 523.665 186.66 523.327C185.906 522.976 185.529 522.715 185.529 522.546C185.529 522.468 185.594 522.429 185.724 522.429C186.179 522.494 186.712 522.553 187.324 522.605C187.948 522.644 188.592 522.663 189.255 522.663L190.855 522.683C191.649 522.683 193.249 522.637 195.655 522.546C198.062 522.442 199.337 522.358 199.48 522.293C199.779 522.293 200.091 522.228 200.416 522.098C200.585 522.033 200.761 521.961 200.943 521.883C201.88 521.883 202.504 521.909 202.816 521.961C203.415 522.065 203.714 522.273 203.714 522.585ZM199.382 525.766C199.382 525.857 199.298 525.987 199.129 526.156C199.038 526.247 198.992 526.312 198.992 526.351C198.979 526.364 198.946 526.527 198.894 526.839C198.855 527.138 198.784 527.561 198.68 528.107L198.348 529.824C198.569 529.824 198.784 529.844 198.992 529.883C199.213 529.909 199.324 530.013 199.324 530.195C199.324 530.351 199.252 530.455 199.109 530.507C198.979 530.559 198.777 530.585 198.504 530.585L191.851 530.722C191.851 530.982 191.798 531.236 191.694 531.483C191.59 531.73 191.434 531.854 191.226 531.854C191.096 531.854 190.985 531.633 190.894 531.19C190.868 531.047 190.836 530.826 190.797 530.527L190.446 526.449C190.42 526.28 190.159 526.091 189.665 525.883C189.184 525.675 188.943 525.538 188.943 525.473C188.943 525.369 189.021 525.298 189.177 525.259C189.346 525.207 189.496 525.18 189.626 525.18H189.704C190.303 525.18 190.803 525.233 191.207 525.337C191.337 525.363 191.48 525.415 191.636 525.493L195.129 525.473C195.467 525.473 195.825 525.46 196.202 525.434C196.579 525.408 196.865 525.389 197.06 525.376C197.255 525.35 197.424 525.291 197.568 525.2C197.724 525.109 197.821 525.063 197.86 525.063C197.977 525.063 198.257 525.161 198.699 525.356C199.142 525.538 199.369 525.675 199.382 525.766ZM195.011 514.702C194.946 514.767 194.888 514.826 194.836 514.878C194.719 514.995 194.582 515.067 194.426 515.093C193.698 515.223 193.093 515.463 192.611 515.815C192.013 516.257 191.714 516.81 191.714 517.473C191.714 518.202 191.974 518.793 192.494 519.249C193.028 519.691 193.704 519.912 194.524 519.912C195.265 519.912 195.922 519.717 196.494 519.327C197.145 518.885 197.47 518.306 197.47 517.59C197.47 516.771 197.06 516.042 196.241 515.405C195.968 515.197 195.558 514.963 195.011 514.702ZM197.724 526L191.772 526.117L191.87 530.098L195.011 530.039L197.587 529.902L197.724 526ZM218.964 516.42C218.262 516.42 217.833 516.387 217.676 516.322C217.39 516.218 217.072 516.055 216.72 515.834C216.291 515.561 216.076 515.359 216.076 515.229C216.076 515.19 216.141 515.158 216.272 515.132C216.376 515.132 216.629 515.164 217.033 515.229C217.436 515.294 217.728 515.327 217.911 515.327L220.213 515.307C220.59 515.307 220.857 515.346 221.013 515.424C221.169 515.489 221.247 515.639 221.247 515.873C221.247 516.068 221.02 516.211 220.564 516.302C220.109 516.38 219.576 516.42 218.964 516.42ZM224.35 518.078C224.311 518.247 224.161 518.371 223.901 518.449C223.654 518.514 223.341 518.546 222.964 518.546L222.008 518.527C221.774 518.527 221.215 518.559 220.33 518.624C219.459 518.676 218.945 518.702 218.789 518.702C218.489 518.702 218.132 518.735 217.715 518.8C217.312 518.852 216.896 518.911 216.467 518.976C216.128 519.067 215.79 519.151 215.452 519.229C215.231 519.229 214.828 519.099 214.242 518.839C213.657 518.566 213.364 518.377 213.364 518.273C213.364 518.221 213.416 518.189 213.52 518.176C213.533 518.176 213.559 518.176 213.598 518.176C213.833 518.176 214.184 518.202 214.652 518.254C215.12 518.306 215.478 518.332 215.725 518.332C216.05 518.332 217.026 518.273 218.652 518.156C220.291 518.039 221.163 517.954 221.267 517.902C221.423 517.902 221.605 517.85 221.813 517.746C222.281 517.512 222.594 517.395 222.75 517.395C223.361 517.395 223.784 517.441 224.018 517.532C224.252 517.61 224.369 517.746 224.369 517.941L224.35 518.078ZM230.886 521.961C230.847 522.13 230.717 522.247 230.496 522.312C230.275 522.377 229.924 522.41 229.442 522.41L227.042 522.527L226.964 525.122C226.964 525.707 226.893 526.202 226.75 526.605C226.607 527.008 226.411 527.21 226.164 527.21C226.06 527.21 225.976 527.021 225.911 526.644C225.859 526.267 225.833 525.805 225.833 525.259L225.735 515.307C225.735 515.112 225.325 514.813 224.506 514.41C223.699 514.007 223.296 513.759 223.296 513.668C223.296 513.551 223.374 513.473 223.53 513.434C223.699 513.395 223.875 513.376 224.057 513.376C224.525 513.376 225.111 513.486 225.813 513.707C226.698 513.98 227.14 514.293 227.14 514.644C227.14 514.709 227.127 514.82 227.101 514.976C227.075 515.132 227.062 515.262 227.062 515.366L227.042 521.902L228.076 521.844L229.111 521.298H229.755C230.119 521.298 230.398 521.33 230.594 521.395C230.802 521.46 230.906 521.597 230.906 521.805L230.886 521.961ZM222.789 522.78C222.789 523.613 222.398 524.322 221.618 524.907C220.889 525.454 220.089 525.727 219.218 525.727C218.021 525.727 217.039 525.363 216.272 524.634C215.608 523.997 215.276 523.32 215.276 522.605C215.276 521.538 215.803 520.732 216.857 520.185C217.403 519.99 217.956 519.795 218.515 519.6C218.594 519.561 218.646 519.535 218.672 519.522C218.737 519.483 218.769 519.385 218.769 519.229C218.769 519.151 218.75 519.054 218.711 518.937C218.672 518.82 218.652 518.722 218.652 518.644C218.652 518.553 218.691 518.507 218.769 518.507C218.964 518.507 219.172 518.592 219.394 518.761C219.615 518.93 219.725 519.106 219.725 519.288C219.725 519.366 219.706 519.437 219.667 519.502C219.654 519.528 219.628 519.561 219.589 519.6C220.304 519.704 220.837 519.841 221.189 520.01C222.255 520.53 222.789 521.395 222.789 522.605V522.78ZM228.974 530.527C228.974 530.748 228.824 530.917 228.525 531.034C228.226 531.151 227.673 531.21 226.867 531.21L220.818 531.249C220.233 531.249 219.823 531.171 219.589 531.015C219.289 530.807 219.14 530.416 219.14 529.844V528.166C219.14 527.893 218.932 527.672 218.515 527.502C218.112 527.333 217.696 527.158 217.267 526.976C217.267 526.846 217.384 526.761 217.618 526.722C217.865 526.683 218.106 526.663 218.34 526.663C219.042 526.663 219.576 526.715 219.94 526.82C220.317 526.924 220.506 527.08 220.506 527.288C220.506 527.34 220.486 527.437 220.447 527.58C220.408 527.724 220.389 527.834 220.389 527.912V529.824C220.389 530.15 220.428 530.377 220.506 530.507C220.584 530.637 220.707 530.702 220.876 530.702L224.974 530.507C225.13 530.507 225.462 530.403 225.969 530.195C226.06 530.169 226.184 530.111 226.34 530.02L227.335 529.98C227.803 529.98 228.194 530.02 228.506 530.098C228.818 530.176 228.974 530.319 228.974 530.527ZM221.852 522.585V522.41C221.852 521.837 221.637 521.343 221.208 520.927C220.636 520.367 220.135 520.088 219.706 520.088C219.615 520.244 219.537 520.348 219.472 520.4C219.328 520.517 219.172 520.576 219.003 520.576C218.587 520.576 218.106 520.751 217.559 521.102C216.87 521.545 216.525 522.085 216.525 522.722C216.525 523.242 216.792 523.724 217.325 524.166C217.872 524.595 218.47 524.81 219.12 524.81C219.81 524.81 220.421 524.615 220.955 524.224C221.553 523.782 221.852 523.236 221.852 522.585ZM258 523.132C257.961 523.34 257.844 523.489 257.649 523.58C257.467 523.659 257.219 523.698 256.907 523.698C256.179 523.698 255.593 523.691 255.151 523.678C253.369 523.626 252.393 523.6 252.224 523.6L248.946 523.659C247.867 523.659 246.741 523.717 245.571 523.834C245.167 523.873 244.667 523.938 244.068 524.029C243.925 524.029 243.704 524.094 243.405 524.224C243.106 524.341 242.852 524.4 242.644 524.4C242.319 524.4 241.792 524.257 241.063 523.971C240.348 523.685 239.99 523.437 239.99 523.229C239.99 523.112 240.094 523.054 240.302 523.054C240.38 523.054 240.608 523.08 240.985 523.132C241.363 523.184 241.701 523.21 242 523.21L243.776 523.249C244.803 523.249 245.681 523.236 246.41 523.21C247.151 523.184 247.834 523.151 248.458 523.112L248.38 521.044L245.59 521.141C245.005 521.141 244.595 521.018 244.361 520.771C244.14 520.511 244.029 520.068 244.029 519.444L244.01 516.049C244.01 515.841 243.711 515.633 243.112 515.424C242.514 515.216 242.215 515.073 242.215 514.995C242.215 514.878 242.286 514.8 242.429 514.761C242.585 514.722 242.761 514.702 242.956 514.702C243.099 514.702 243.301 514.715 243.561 514.741C243.821 514.767 243.99 514.78 244.068 514.78C244.406 514.78 244.654 514.813 244.81 514.878C244.966 514.93 245.122 514.989 245.278 515.054C245.902 515.054 246.976 515.028 248.498 514.976C250.019 514.911 250.845 514.846 250.976 514.78C251.249 514.78 251.509 514.715 251.756 514.585C251.873 514.52 251.99 514.449 252.107 514.371L253.102 514.351C253.584 514.351 253.935 514.384 254.156 514.449C254.377 514.501 254.488 514.618 254.488 514.8C254.488 515.164 254.221 515.379 253.688 515.444C253.571 515.457 253.245 515.463 252.712 515.463L245.356 515.639V517.746L247.756 517.766C248.25 517.766 248.907 517.733 249.727 517.668C249.987 517.655 250.345 517.623 250.8 517.571C250.969 517.571 251.158 517.512 251.366 517.395C251.574 517.278 251.691 517.22 251.717 517.22L252.751 517.18C253.089 517.18 253.376 517.213 253.61 517.278C253.844 517.33 253.961 517.46 253.961 517.668C253.961 517.85 253.779 518 253.415 518.117C253.063 518.234 252.478 518.293 251.658 518.293C251.411 518.293 251.236 518.293 251.132 518.293C251.041 518.293 250.976 518.293 250.937 518.293L245.337 518.39V520.088C245.337 520.257 245.382 520.367 245.473 520.42C245.564 520.459 245.714 520.478 245.922 520.478L248.907 520.439L251.054 520.361C251.262 520.361 251.515 520.27 251.815 520.088C251.958 519.997 252.107 519.906 252.263 519.815L253.161 519.795C253.512 519.795 253.811 519.828 254.058 519.893C254.319 519.945 254.449 520.075 254.449 520.283C254.449 520.517 254.332 520.673 254.098 520.751C253.863 520.829 253.571 520.868 253.219 520.868C253.037 520.868 252.758 520.888 252.38 520.927C252.016 520.953 251.639 520.966 251.249 520.966L249.785 521.005L249.746 522.254L249.668 523.015L254.039 522.839C254.208 522.839 254.481 522.754 254.858 522.585C255.028 522.507 255.138 522.468 255.19 522.468H255.795C256.445 522.468 256.972 522.507 257.376 522.585C257.792 522.65 258 522.807 258 523.054V523.132ZM253.18 528.302V528.42C253.18 529.408 252.764 530.215 251.932 530.839C251.177 531.411 250.293 531.698 249.278 531.698C248.159 531.698 247.171 531.372 246.312 530.722C245.454 530.072 245.024 529.285 245.024 528.361C245.024 527.32 245.415 526.533 246.195 526C247.041 525.61 247.886 525.22 248.732 524.829L248.673 524.478L248.751 524.42C248.959 524.42 249.174 524.504 249.395 524.673C249.629 524.829 249.746 524.992 249.746 525.161C250.514 525.343 251.086 525.532 251.463 525.727C252.608 526.325 253.18 527.184 253.18 528.302ZM249.629 525.688C249.577 525.766 248.966 526.02 247.795 526.449C246.832 526.8 246.351 527.431 246.351 528.341C246.351 528.966 246.676 529.512 247.327 529.98C247.925 530.41 248.576 530.624 249.278 530.624C250.032 530.624 250.676 530.39 251.21 529.922C251.756 529.441 252.029 528.881 252.029 528.244C252.029 527.58 251.789 527.021 251.307 526.566C250.696 525.98 250.137 525.688 249.629 525.688Z" fill="black"/>
<rect x="420.5" y="222.5" width="58" height="69" stroke="#D94141"/>
<rect x="420.5" y="222.5" width="58" height="69" stroke="#D94141"/>
<rect x="420.5" y="158.5" width="58" height="69" stroke="#D94141"/>
<rect x="420.5" y="158.5" width="58" height="69" stroke="#D94141"/>
<rect x="420.5" y="286.5" width="58" height="69" stroke="#D94141"/>
<rect x="420.5" y="286.5" width="58" height="69" stroke="#D94141"/>
<rect x="420.5" y="350.5" width="58" height="69" stroke="#D94141"/>
<rect x="420.5" y="350.5" width="58" height="69" stroke="#D94141"/>
<rect x="420.5" y="414.5" width="58" height="69" stroke="#D94141"/>
<rect x="420.5" y="414.5" width="58" height="69" stroke="#D94141"/>
<rect x="391.746" y="150.808" width="62" height="31" transform="rotate(-7.82917 391.746 150.808)" fill="white"/>
<rect x="455.594" y="143.23" width="62" height="31" transform="rotate(5.73714 455.594 143.23)" fill="white"/>
<rect x="446" y="485.119" width="30.5117" height="30.7845" transform="rotate(-36.4294 446 485.119)" fill="white"/>
<rect x="468.341" y="468.657" width="40.6551" height="30.7845" transform="rotate(-40.9717 468.341 468.657)" fill="white"/>
</svg>
