<svg width="657" height="561" viewBox="0 0 657 561" fill="none" xmlns="http://www.w3.org/2000/svg">
<ellipse cx="328.111" cy="280.079" rx="288.226" ry="157" transform="rotate(-30 328.111 280.079)" fill="#FDF2DC"/>
<path d="M460.941 149.898L460.854 160.434L462.698 160.259C462.99 160.229 463.488 160.01 464.19 159.6C464.893 159.19 465.683 158.985 466.561 158.985C467.381 158.985 468.068 159.073 468.624 159.249C469.181 159.424 469.459 159.746 469.459 160.215C469.459 160.829 469.239 161.224 468.8 161.4C468.39 161.576 467.746 161.663 466.868 161.663L460.81 161.751L460.722 163.859C460.722 165.293 460.605 166.537 460.371 167.59C460.02 169.171 459.478 169.961 458.746 169.961C458.483 169.961 458.293 169.537 458.176 168.688C458.088 167.81 458.044 166.932 458.044 166.054V149.634C458.044 148.961 457.122 148.288 455.278 147.615C453.463 146.941 452.556 146.517 452.556 146.341C452.556 146.049 452.776 145.859 453.215 145.771C453.654 145.654 454.063 145.595 454.444 145.595C455.702 145.595 457.005 145.785 458.351 146.166C460.166 146.663 461.073 147.322 461.073 148.141L460.941 149.898ZM447.156 166.054L436.181 166.405C436.093 166.932 436.005 167.327 435.917 167.59C435.624 168.38 435.156 168.776 434.512 168.776C434.278 168.776 434.073 168.38 433.898 167.59C433.751 166.8 433.678 166.141 433.678 165.615L433.459 154.727C433.459 154.2 433.063 153.746 432.273 153.366C430.546 152.517 429.683 152.049 429.683 151.961C429.683 151.698 429.873 151.537 430.254 151.478C430.663 151.39 431.059 151.346 431.439 151.346C432.815 151.346 433.839 151.42 434.512 151.566C435.859 151.859 436.532 152.415 436.532 153.234L436.4 154.507V156.395L447.068 156.22V152.488C447.068 152.078 446.512 151.639 445.4 151.171C444.317 150.702 443.776 150.337 443.776 150.073C443.776 149.868 443.893 149.722 444.127 149.634C444.39 149.517 444.756 149.459 445.224 149.459C446.22 149.459 447.215 149.605 448.21 149.898C449.585 150.307 450.273 150.834 450.273 151.478C450.273 151.683 450.244 151.976 450.185 152.356C450.127 152.737 450.098 153.015 450.098 153.19L449.834 163.2C449.834 164.78 449.659 165.937 449.307 166.668C448.956 167.4 448.488 167.766 447.902 167.766C447.639 167.766 447.434 167.488 447.288 166.932C447.259 166.756 447.215 166.463 447.156 166.054ZM441.229 175.054C441.171 174.322 440.585 173.795 439.473 173.473C438.361 173.151 437.805 172.859 437.805 172.595C437.805 172.332 438.024 172.127 438.463 171.98C438.902 171.834 439.517 171.761 440.307 171.761C440.893 171.761 441.537 171.834 442.239 171.98C442.971 172.127 443.761 172.288 444.61 172.463C445.722 172.463 447.873 172.42 451.063 172.332C454.254 172.215 455.937 172.127 456.112 172.068C456.317 172.068 456.566 171.995 456.859 171.849C457.181 171.702 457.532 171.541 457.912 171.366C458.205 171.366 458.834 171.556 459.8 171.937C460.766 172.288 461.249 172.58 461.249 172.815C461.249 173.049 461.102 173.283 460.81 173.517C460.546 173.751 460.4 173.956 460.371 174.132C460.254 174.629 460.137 175.185 460.02 175.8C459.785 176.649 459.624 177.307 459.537 177.776L458.571 182.21C459.039 182.21 459.39 182.239 459.624 182.298C460.327 182.473 460.678 182.81 460.678 183.307C460.678 183.688 460.488 183.937 460.107 184.054C459.756 184.171 459.346 184.229 458.878 184.229L456.332 184.141L444.302 184.449C444.302 185.034 444.215 185.561 444.039 186.029C443.776 186.732 443.366 187.083 442.81 187.083C442.459 187.083 442.195 186.527 442.02 185.415C441.961 185.034 441.932 184.654 441.932 184.273L441.229 175.054ZM444.259 173.78L444.478 183.044L456.771 182.517C456.771 181.698 456.829 180.688 456.946 179.488C457.21 176.766 457.341 175.054 457.341 174.351L457.298 173.341L444.259 173.78ZM436.4 157.888L436.356 164.912L447.068 164.649V157.668L436.4 157.888ZM451.854 211.522C451.766 211.961 451.385 212.268 450.712 212.444C450.068 212.59 449.234 212.663 448.21 212.663H447.244C446.863 212.663 445.927 212.737 444.434 212.883C442.971 213 442.005 213.059 441.537 213.059C440.541 213.059 439.341 213.132 437.937 213.278C437.439 213.307 436.766 213.395 435.917 213.541C435.654 213.541 435.332 213.629 434.951 213.805C434.746 213.893 434.571 213.937 434.424 213.937C433.956 213.937 433.049 213.644 431.702 213.059C430.385 212.444 429.727 212.02 429.727 211.785C429.727 211.727 429.8 211.683 429.946 211.654C429.976 211.654 430.063 211.639 430.21 211.61C430.941 211.61 432.068 211.668 433.59 211.785C435.112 211.902 436.254 211.961 437.015 211.961L440.307 211.829C441.42 211.829 442.59 211.741 443.82 211.566C444.229 211.507 444.771 211.405 445.444 211.259C445.766 211.141 446.029 211.039 446.234 210.951C446.644 210.746 447.054 210.541 447.463 210.337C449.073 210.337 450.2 210.366 450.844 210.424C451.517 210.483 451.854 210.776 451.854 211.302V211.522ZM438.859 222.498L438.902 223.244C438.902 224.21 438.785 225.102 438.551 225.922C438.317 226.712 437.966 227.107 437.498 227.107C437.146 227.107 436.854 226.566 436.62 225.483C436.502 224.81 436.385 224.122 436.268 223.42C436.063 222.541 435.741 221.371 435.302 219.907C434.512 217.361 434.117 215.927 434.117 215.605L434.293 215.298C434.702 215.298 435.551 216.337 436.839 218.415C438.127 220.493 438.8 221.854 438.859 222.498ZM462.083 209.898L461.863 231.015C461.863 233.21 461.688 234.995 461.337 236.371C460.985 237.717 460.473 238.39 459.8 238.39C459.449 238.39 459.244 237.878 459.185 236.854C459.127 235.829 459.098 234.863 459.098 233.956V225L454.663 225.527C454.488 225.556 454.268 225.644 454.005 225.79C453.741 225.907 453.507 225.966 453.302 225.966C452.805 225.966 452.088 225.79 451.151 225.439C450.215 225.059 449.746 224.693 449.746 224.341C449.746 224.254 449.834 224.18 450.01 224.122C450.068 224.122 450.171 224.107 450.317 224.078C450.551 224.078 450.932 224.107 451.459 224.166C452.015 224.195 452.351 224.21 452.468 224.21L453.259 224.166C455.073 224.02 456.493 223.917 457.517 223.859C458.571 223.771 459.098 223.683 459.098 223.595V216.351L454.751 216.79C454.371 216.937 453.99 217.068 453.61 217.185C453.141 217.185 452.512 216.995 451.722 216.615C450.961 216.234 450.581 215.868 450.581 215.517C450.581 215.371 450.756 215.298 451.107 215.298L454.049 215.341C454.429 215.341 455.117 215.312 456.112 215.254C457.137 215.166 458.132 215.078 459.098 214.99V209.502C459.098 209.18 458.541 208.741 457.429 208.185C456.317 207.629 455.176 207.059 454.005 206.473C454.005 206.239 454.181 206.063 454.532 205.946C454.912 205.8 455.234 205.727 455.498 205.727H455.893C457.122 205.844 458.337 206.093 459.537 206.473C461.322 207.029 462.215 207.644 462.215 208.317C462.127 208.932 462.083 209.459 462.083 209.898ZM451.327 226.8C451.356 227.444 449.278 228.38 445.093 229.61C440.907 230.839 438.127 231.454 436.751 231.454C436.517 231.512 436.181 231.688 435.741 231.98C435.332 232.273 434.966 232.42 434.644 232.42C434.059 232.42 432.917 231.98 431.22 231.102C429.551 230.195 428.717 229.58 428.717 229.259C428.717 229.112 428.863 229.039 429.156 229.039C430.034 229.156 430.839 229.259 431.571 229.346C432.332 229.405 433.063 229.434 433.766 229.434L434.863 229.39C436.502 229.39 438.463 229.244 440.746 228.951C441.507 228.863 442.532 228.702 443.82 228.468C444.229 226.741 444.639 224.956 445.049 223.112C445.634 220.39 445.927 218.678 445.927 217.976V217.8C445.927 217.332 445.59 216.878 444.917 216.439C444.273 215.971 443.6 215.502 442.898 215.034C442.898 214.859 443.029 214.712 443.293 214.595C443.585 214.478 443.907 214.42 444.259 214.42C445.107 214.42 446.278 214.785 447.771 215.517C448.707 215.985 449.176 216.395 449.176 216.746C449.176 216.922 449.117 217.127 449 217.361C448.883 217.566 448.766 217.8 448.649 218.063C448.649 218.649 448.298 219.922 447.595 221.883C446.805 223.99 446.015 226.098 445.224 228.205L448.122 227.546C448.649 227.371 449.205 227.195 449.79 227.02C450.376 226.815 450.8 226.712 451.063 226.712L451.327 226.8ZM462.829 245.634L460.107 245.546L446.498 245.81C445.415 245.81 444.493 245.649 443.732 245.327C442.678 244.888 442.151 244.2 442.151 243.263L441.844 237.073C441.844 236.81 441.068 236.546 439.517 236.283C437.995 236.02 437.234 235.815 437.234 235.668C437.234 235.405 437.424 235.171 437.805 234.966C438.185 234.761 438.595 234.659 439.034 234.659L443.029 234.79C443.82 234.79 444.346 234.893 444.61 235.098C444.873 235.302 445.005 235.595 445.005 235.976L444.917 237.161L444.961 242.561C444.961 243.234 445.02 243.688 445.137 243.922C445.283 244.185 445.663 244.317 446.278 244.317L457.561 244.141C457.737 244.141 458.132 243.98 458.746 243.659C458.951 243.571 459.259 243.395 459.668 243.132L461.073 243.088C462.361 243.088 463.385 243.176 464.146 243.351C464.937 243.556 465.332 243.893 465.332 244.361C465.302 244.829 465.054 245.151 464.585 245.327C464.146 245.532 463.561 245.634 462.829 245.634ZM453.434 294.044L453.171 294.088C452.79 294.088 451.854 293.341 450.361 291.849C448.898 290.327 447.463 288.834 446.059 287.371C444.537 285.79 443.688 285 443.512 285C442.634 285.849 441.888 286.537 441.273 287.063C439.517 288.615 437.688 290.078 435.785 291.454C433.912 292.829 432.273 293.956 430.868 294.834C429.2 295.859 428.132 296.371 427.663 296.371L427.4 296.151C427.4 295.946 427.824 295.537 428.673 294.922C430.956 293.224 432.141 292.346 432.229 292.288C434.044 290.912 435.873 289.361 437.717 287.634C439.678 285.82 441.463 283.873 443.073 281.795C444.215 280.302 445.21 278.824 446.059 277.361C446.351 276.776 446.659 276.19 446.981 275.605L441.8 275.868L436.751 276.307C436.576 276.424 436.385 276.541 436.181 276.659C435.976 276.746 435.727 276.79 435.434 276.79C434.995 276.79 434.073 276.454 432.668 275.78C431.293 275.107 430.605 274.639 430.605 274.376C430.605 274.288 430.722 274.215 430.956 274.156C431.015 274.156 431.146 274.141 431.351 274.112C432.083 274.112 433.21 274.171 434.732 274.288C436.254 274.405 437.395 274.463 438.156 274.463C440.41 274.463 442.62 274.39 444.785 274.244C445.166 274.244 445.649 274.2 446.234 274.112C446.322 274.112 446.527 274.054 446.849 273.937C447.581 273.673 447.99 273.541 448.078 273.541C448.488 273.541 449.102 273.717 449.922 274.068C450.771 274.42 451.195 274.756 451.195 275.078C451.195 275.283 451.063 275.488 450.8 275.693C450.537 275.898 450.288 276.088 450.054 276.263C449.673 276.907 449.366 277.405 449.132 277.756C448.459 278.78 447.844 279.673 447.288 280.434C446.937 280.902 446.337 281.62 445.488 282.585C444.756 283.405 444.39 283.859 444.39 283.946L446.805 286.054C447.127 286.317 447.654 286.639 448.385 287.02C449.117 287.4 449.863 287.766 450.624 288.117C451.649 289.083 452.468 290.005 453.083 290.883C453.727 291.761 454.049 292.478 454.049 293.034C454.049 293.502 453.844 293.839 453.434 294.044ZM461.995 268.756L461.776 302.254C461.776 303.307 461.688 304.273 461.512 305.151C461.22 306.615 460.766 307.346 460.151 307.346C459.917 307.346 459.727 307.098 459.581 306.6C459.434 306.132 459.361 305.327 459.361 304.185L459.098 269.415C459.098 269.18 458.498 268.785 457.298 268.229C456.098 267.644 454.868 267.044 453.61 266.429C453.61 266.224 453.815 266.049 454.224 265.902C454.634 265.727 454.971 265.639 455.234 265.639C456.083 265.639 457.341 265.873 459.01 266.341C461.059 266.927 462.083 267.527 462.083 268.141L461.995 268.756Z" fill="black"/>
<path d="M176.298 344.839C176.298 345.659 175.992 346.38 175.38 347.005C174.691 347.707 173.8 348.059 172.707 348.059C171.706 348.059 170.808 347.772 170.015 347.2C169.143 346.576 168.707 345.782 168.707 344.82C168.707 343.506 169.293 342.563 170.463 341.99C170.854 341.808 171.439 341.652 172.22 341.522C172.272 341.47 172.298 341.398 172.298 341.307C172.298 341.242 172.285 341.164 172.259 341.073C172.233 341.008 172.213 340.943 172.2 340.878L172.337 340.8C172.506 340.8 172.701 340.885 172.922 341.054C173.143 341.21 173.254 341.372 173.254 341.541C173.93 341.763 174.437 341.977 174.776 342.185C175.79 342.836 176.298 343.72 176.298 344.839ZM180.785 341.034L180.766 354.4C180.766 355.18 180.733 355.824 180.668 356.332C180.538 357.372 180.291 357.893 179.927 357.893C179.784 357.893 179.686 357.763 179.634 357.502C179.582 357.242 179.556 356.911 179.556 356.507L179.478 341.015C179.478 340.82 179.088 340.566 178.307 340.254C177.54 339.941 177.156 339.759 177.156 339.707C177.156 339.59 177.241 339.512 177.41 339.473C177.592 339.421 177.761 339.395 177.917 339.395C178.463 339.395 179.029 339.473 179.615 339.629C180.434 339.85 180.844 340.143 180.844 340.507L180.785 341.034ZM180.2 348.215C180.2 348.41 179.68 348.67 178.639 348.995C177.793 349.255 177.085 349.47 176.512 349.639C175.94 349.808 175.276 349.977 174.522 350.146C174.249 350.211 173.878 350.289 173.41 350.38L173.371 353.288C173.371 354.159 173.293 354.875 173.137 355.434C172.98 355.993 172.772 356.273 172.512 356.273C172.408 356.273 172.324 356.117 172.259 355.805C172.207 355.48 172.18 355.141 172.18 354.79L172.141 350.576L169.605 351.044C169.332 351.161 169.059 351.272 168.785 351.376C168.616 351.376 168.122 351.18 167.302 350.79C166.496 350.387 166.093 350.133 166.093 350.029C166.093 349.938 166.197 349.893 166.405 349.893C166.626 349.893 166.815 349.899 166.971 349.912C167.764 349.977 168.265 350.01 168.473 350.01C169.501 350.01 170.541 349.945 171.595 349.815C172.662 349.685 173.826 349.502 175.088 349.268C176.024 349.112 176.902 348.937 177.722 348.741C179.296 348.377 180.096 348.195 180.122 348.195L180.2 348.215ZM175.205 344.917L175.224 344.624C175.224 343.857 174.886 343.193 174.21 342.634C173.989 342.452 173.65 342.25 173.195 342.029C173.169 342.211 172.629 342.459 171.576 342.771C170.522 343.07 169.995 343.701 169.995 344.663C169.995 345.366 170.262 345.945 170.795 346.4C171.328 346.855 171.959 347.083 172.688 347.083C173.52 347.083 174.164 346.823 174.62 346.302C174.958 345.912 175.153 345.45 175.205 344.917ZM197.411 342.146L197.392 349.424C197.392 350.075 197.333 350.543 197.216 350.829C197.112 351.115 196.963 351.259 196.768 351.259C196.638 351.259 196.527 351.037 196.436 350.595C196.345 350.153 196.299 349.691 196.299 349.21L196.26 347.161L194.797 347.356C194.732 347.395 194.68 347.421 194.641 347.434C194.498 347.499 194.374 347.532 194.27 347.532C194.088 347.532 193.782 347.441 193.353 347.259C192.937 347.063 192.729 346.914 192.729 346.81C192.729 346.745 192.846 346.712 193.08 346.712L194.036 346.732C194.4 346.732 194.881 346.693 195.48 346.615C195.675 346.589 195.935 346.55 196.26 346.498L196.182 342.166C196.182 342.101 195.877 341.958 195.265 341.737C194.654 341.515 194.355 341.372 194.368 341.307C194.368 341.229 194.426 341.158 194.543 341.093C194.66 341.028 194.816 340.995 195.011 340.995C195.779 341.073 196.254 341.132 196.436 341.171C197.112 341.314 197.451 341.528 197.451 341.815L197.411 342.146ZM200.787 340.839L200.748 350.654C200.748 351.148 200.716 351.577 200.651 351.941C200.52 352.709 200.28 353.093 199.929 353.093C199.785 353.093 199.694 352.872 199.655 352.429C199.616 351.974 199.597 351.571 199.597 351.22L199.558 340.937C199.558 340.846 199.337 340.709 198.894 340.527C198.452 340.332 197.997 340.137 197.529 339.941C197.529 339.811 197.587 339.72 197.704 339.668C197.834 339.603 198.016 339.571 198.251 339.571C198.745 339.571 199.239 339.636 199.733 339.766C200.449 339.948 200.807 340.228 200.807 340.605L200.787 340.839ZM193.353 344.195C193.249 344.429 193.164 344.618 193.099 344.761C192.891 345.203 192.716 345.548 192.572 345.795L191.89 346.868L192.319 347.493C192.826 348.052 193.184 348.462 193.392 348.722C193.769 349.19 193.958 349.717 193.958 350.302C193.958 350.511 193.919 350.68 193.841 350.81C193.763 350.927 193.672 350.985 193.568 350.985C193.398 350.985 193.21 350.823 193.002 350.498C192.885 350.315 192.729 350.003 192.533 349.561L191.48 347.317C191.181 347.668 190.933 347.948 190.738 348.156C190.114 348.846 189.581 349.366 189.138 349.717C188.449 350.302 187.766 350.823 187.09 351.278C186.478 351.694 186.088 351.902 185.919 351.902L185.841 351.824C185.841 351.772 186.439 351.22 187.636 350.166C188.377 349.515 189.008 348.872 189.529 348.234C190.335 347.259 190.992 346.244 191.499 345.19C191.668 344.839 191.844 344.403 192.026 343.883L189.509 344.195C189.405 344.247 189.281 344.306 189.138 344.371C188.995 344.423 188.846 344.449 188.69 344.449C188.494 344.449 188.15 344.319 187.655 344.059C187.161 343.785 186.914 343.584 186.914 343.454C186.914 343.402 186.972 343.376 187.09 343.376H187.168C187.402 343.376 187.746 343.402 188.202 343.454C188.67 343.493 188.989 343.512 189.158 343.512C189.782 343.512 190.42 343.473 191.07 343.395C191.278 343.369 191.486 343.343 191.694 343.317C191.916 343.278 192.078 343.239 192.182 343.2C192.286 343.161 192.41 343.115 192.553 343.063C192.735 343.063 192.989 343.148 193.314 343.317C193.652 343.473 193.821 343.616 193.821 343.746C193.808 343.811 193.75 343.883 193.646 343.961C193.555 344.039 193.457 344.117 193.353 344.195ZM201.841 358.049L201.743 358.068C201.47 358.068 200.891 357.704 200.007 356.976C199.421 356.494 198.66 355.818 197.724 354.946C196.917 354.205 196.488 353.834 196.436 353.834C196.163 354.146 195.922 354.4 195.714 354.595C195.064 355.22 194.329 355.785 193.509 356.293C192.69 356.8 191.87 357.229 191.051 357.58C190.244 357.945 189.704 358.127 189.431 358.127L189.314 358.049C189.314 357.984 189.86 357.639 190.953 357.015C191.733 356.572 192.481 356.085 193.197 355.551C193.99 354.979 194.673 354.283 195.246 353.463C195.428 353.19 195.642 352.839 195.89 352.41C195.89 352.332 195.798 352.208 195.616 352.039C195.447 351.87 195.272 351.694 195.09 351.512C195.09 351.395 195.207 351.337 195.441 351.337C195.714 351.337 196.098 351.447 196.592 351.668C197.086 351.889 197.333 352.098 197.333 352.293C197.333 352.358 197.32 352.423 197.294 352.488C197.255 352.553 197.229 352.598 197.216 352.624L196.787 353.346L198.055 354.322C198.368 354.556 198.758 354.81 199.226 355.083C199.564 355.265 199.903 355.447 200.241 355.629C200.722 355.98 201.112 356.312 201.411 356.624C201.854 357.08 202.075 357.437 202.075 357.698C202.075 357.867 201.997 357.984 201.841 358.049ZM218.408 346.341C218.408 347.447 217.901 348.364 216.886 349.093C215.976 349.743 214.942 350.068 213.784 350.068C212.613 350.068 211.566 349.724 210.642 349.034C209.641 348.28 209.14 347.33 209.14 346.185C209.14 345.041 209.511 344.117 210.252 343.415C210.76 342.933 211.456 342.569 212.34 342.322C212.86 342.179 213.231 342.107 213.452 342.107C213.556 342.003 213.608 341.88 213.608 341.737C213.608 341.659 213.589 341.561 213.55 341.444C213.524 341.327 213.511 341.262 213.511 341.249C213.511 341.158 213.563 341.112 213.667 341.112C213.875 341.112 214.07 341.229 214.252 341.463C214.434 341.698 214.525 341.925 214.525 342.146C215.384 342.146 216.269 342.569 217.179 343.415C217.999 344.182 218.408 345.158 218.408 346.341ZM223.345 353.893C223.345 354.088 223.195 354.231 222.896 354.322C222.597 354.4 222.2 354.439 221.706 354.439L219.325 354.38C218.857 354.38 217.999 354.4 216.75 354.439C215.514 354.465 214.779 354.478 214.545 354.478C212.815 354.478 211.39 354.53 210.272 354.634C209.647 354.686 209.192 354.751 208.906 354.829C208.815 354.829 208.704 354.868 208.574 354.946C208.275 355.128 208.073 355.22 207.969 355.22C207.709 355.22 207.163 355.044 206.33 354.693C205.511 354.328 205.101 354.055 205.101 353.873C205.101 353.782 205.173 353.737 205.316 353.737C205.823 353.802 206.389 353.86 207.013 353.912C207.651 353.951 208.288 353.971 208.925 353.971H209.433C209.901 353.971 211.488 353.925 214.194 353.834C216.912 353.743 218.304 353.678 218.369 353.639C218.59 353.639 218.883 353.58 219.247 353.463C219.612 353.333 219.976 353.203 220.34 353.073C221.29 353.073 221.953 353.106 222.33 353.171C223.007 353.288 223.345 353.528 223.345 353.893ZM217.296 346.517L217.316 346.127C217.316 344.995 216.828 344.085 215.852 343.395C215.527 343.174 215.033 342.94 214.369 342.693C214.317 342.81 214.233 342.914 214.116 343.005C214.012 343.083 213.849 343.141 213.628 343.18C212.756 343.363 212.106 343.584 211.677 343.844C210.844 344.364 210.428 345.125 210.428 346.127C210.428 347.011 210.799 347.727 211.54 348.273C212.203 348.767 212.997 349.015 213.921 349.015C214.727 349.015 215.456 348.8 216.106 348.371C216.821 347.902 217.218 347.285 217.296 346.517ZM242.664 354.049C242.664 354.309 242.566 354.491 242.371 354.595C242.189 354.686 241.916 354.732 241.552 354.732C241.356 354.732 241.025 354.712 240.556 354.673C240.088 354.634 239.73 354.615 239.483 354.615H238.41C238.189 354.615 237.558 354.628 236.517 354.654C235.477 354.68 234.553 354.693 233.747 354.693C232.433 354.693 231.126 354.764 229.825 354.907C229.395 354.946 228.875 355.018 228.264 355.122C228.238 355.122 228.14 355.167 227.971 355.259C227.815 355.35 227.665 355.395 227.522 355.395C227.262 355.395 226.742 355.22 225.961 354.868C225.194 354.504 224.81 354.25 224.81 354.107C224.81 354.029 224.895 353.99 225.064 353.99C225.584 354.042 226.143 354.101 226.742 354.166C227.34 354.218 227.821 354.244 228.186 354.244L233.161 354.166L233.083 350.615L230.839 350.654C230.254 350.654 229.818 350.589 229.532 350.459C229.103 350.263 228.888 349.906 228.888 349.385V347.063C228.888 346.868 228.602 346.693 228.03 346.537C227.457 346.38 227.171 346.25 227.171 346.146C227.171 346.016 227.282 345.932 227.503 345.893C227.737 345.854 227.978 345.834 228.225 345.834C228.459 345.834 228.804 345.873 229.259 345.951C229.714 346.029 230.02 346.068 230.176 346.068C230.54 346.042 230.846 346.029 231.093 346.029C232.056 345.99 232.784 345.971 233.278 345.971L237.083 345.737C237.135 345.567 237.168 345.424 237.181 345.307C237.246 344.956 237.278 344.631 237.278 344.332L237.395 342.556C236.862 342.595 236.257 342.634 235.581 342.673C234.904 342.699 234.208 342.712 233.493 342.712L230.469 342.946C230.443 342.946 230.352 342.998 230.195 343.102C230.039 343.193 229.877 343.239 229.708 343.239C229.46 343.239 229.005 343.089 228.342 342.79C227.678 342.478 227.347 342.25 227.347 342.107C227.347 342.055 227.399 342.023 227.503 342.01C227.516 342.01 227.548 342.01 227.6 342.01C228.108 342.062 228.634 342.114 229.181 342.166C229.727 342.205 230.163 342.224 230.488 342.224C231.763 342.224 233.22 342.172 234.859 342.068C235.405 342.042 236.095 341.99 236.927 341.912C236.979 341.912 237.109 341.867 237.317 341.776C237.526 341.672 237.643 341.62 237.669 341.62C237.838 341.62 238.117 341.704 238.508 341.873C238.911 342.029 239.113 342.179 239.113 342.322C239.113 342.4 239.041 342.511 238.898 342.654C238.755 342.784 238.683 342.862 238.683 342.888C238.618 343.135 238.573 343.33 238.547 343.473C238.469 343.772 238.371 344.104 238.254 344.468C238.15 344.833 238.033 345.158 237.903 345.444C237.89 345.496 237.864 345.554 237.825 345.62C238.046 345.633 238.208 345.646 238.313 345.659C238.638 345.724 238.8 345.841 238.8 346.01C238.8 346.166 238.703 346.27 238.508 346.322C238.326 346.374 238.117 346.4 237.883 346.4L230.156 346.693V349.424C230.156 349.698 230.189 349.873 230.254 349.951C230.319 350.029 230.482 350.068 230.742 350.068L233.474 350.029L236.264 349.873C236.563 349.73 236.797 349.613 236.966 349.522C237.148 349.418 237.272 349.366 237.337 349.366L238.43 349.327C238.755 349.327 239.015 349.359 239.21 349.424C239.405 349.476 239.503 349.62 239.503 349.854C239.503 350.127 239.373 350.302 239.113 350.38C238.865 350.459 238.482 350.498 237.961 350.498L234.43 350.556L234.352 354.068L236.166 354.029C236.66 354.029 237.174 354.003 237.708 353.951C238.254 353.899 238.573 353.86 238.664 353.834C238.781 353.834 238.95 353.782 239.171 353.678C239.392 353.574 239.633 353.463 239.893 353.346C240.647 353.346 241.298 353.392 241.844 353.483C242.391 353.561 242.664 353.75 242.664 354.049ZM182.268 385.776C182.216 385.945 182.041 386.029 181.741 386.029C181.468 386.029 181.078 385.958 180.571 385.815C180.063 385.672 179.576 385.528 179.107 385.385C177.989 385.099 177.091 384.872 176.415 384.702C175.595 384.494 175.172 384.39 175.146 384.39C174.795 384.559 174.346 384.774 173.8 385.034C173.254 385.281 172.714 385.509 172.18 385.717C171.517 385.977 170.646 386.263 169.566 386.576C168.486 386.875 167.764 387.024 167.4 387.024C167.335 387.024 167.289 387.024 167.263 387.024C167.172 387.011 167.127 386.972 167.127 386.907C167.868 386.634 168.837 386.276 170.034 385.834C171.322 385.353 172.623 384.735 173.937 383.98C174.912 383.421 175.829 382.784 176.688 382.068C176.974 381.834 177.306 381.535 177.683 381.171L174.932 381.288C174.177 381.288 173.494 381.314 172.883 381.366C172.285 381.405 171.914 381.444 171.771 381.483C171.745 381.483 171.654 381.528 171.498 381.62C171.354 381.711 171.211 381.756 171.068 381.756C170.834 381.756 170.366 381.607 169.663 381.307C168.961 380.995 168.61 380.787 168.61 380.683C168.61 380.631 168.662 380.598 168.766 380.585C168.779 380.585 168.811 380.585 168.863 380.585C169.176 380.585 169.65 380.611 170.288 380.663C170.925 380.702 171.361 380.722 171.595 380.722C172.766 380.722 174.08 380.689 175.537 380.624C176.044 380.611 176.714 380.572 177.546 380.507C177.637 380.507 177.774 380.468 177.956 380.39C178.138 380.312 178.242 380.273 178.268 380.273C178.528 380.273 178.906 380.384 179.4 380.605C179.699 380.735 179.849 380.846 179.849 380.937C179.849 381.054 179.751 381.164 179.556 381.268C179.426 381.333 179.302 381.392 179.185 381.444C179.003 381.626 178.847 381.776 178.717 381.893C178.379 382.205 177.943 382.563 177.41 382.966C177.098 383.213 176.701 383.48 176.22 383.766C176.141 383.818 176.024 383.883 175.868 383.961L178.405 384.527C178.496 384.527 178.691 384.507 178.99 384.468C179.302 384.416 179.517 384.39 179.634 384.39C179.959 384.39 180.48 384.533 181.195 384.82C181.924 385.093 182.288 385.372 182.288 385.659L182.268 385.776ZM184.22 388.839C184.22 389.073 184.083 389.236 183.81 389.327C183.55 389.418 183.172 389.463 182.678 389.463L180.727 389.405L175.966 389.522L175.868 395.824C175.868 396.436 175.79 396.976 175.634 397.444C175.478 397.925 175.315 398.166 175.146 398.166C175.016 398.166 174.906 397.997 174.815 397.659C174.737 397.333 174.698 396.813 174.698 396.098L174.6 389.58C173.846 389.58 172.941 389.62 171.888 389.698C170.847 389.763 170.099 389.854 169.644 389.971C169.54 390.036 169.442 390.094 169.351 390.146C169.26 390.185 169.156 390.205 169.039 390.205C168.714 390.205 168.148 390.049 167.341 389.737C166.548 389.424 166.151 389.171 166.151 388.976C166.151 388.898 166.223 388.859 166.366 388.859C166.379 388.859 166.828 388.904 167.712 388.995C168.22 389.047 168.61 389.073 168.883 389.073C170.782 389.073 172.571 389.041 174.249 388.976C175.927 388.898 177.137 388.833 177.878 388.78C178.633 388.715 179.25 388.657 179.732 388.605C179.888 388.605 180.135 388.559 180.473 388.468C180.811 388.364 181.163 388.26 181.527 388.156H181.605C182.281 388.156 182.789 388.182 183.127 388.234C183.855 388.338 184.22 388.54 184.22 388.839ZM200.787 383.649C200.787 383.727 200.755 383.818 200.69 383.922C200.625 384.013 200.553 384.117 200.475 384.234C200.176 386.563 199.811 388.488 199.382 390.01C198.953 391.532 198.537 392.325 198.133 392.39C197.938 392.39 197.841 392.338 197.841 392.234C197.971 391.727 198.114 391.115 198.27 390.4C198.426 389.685 198.556 388.904 198.66 388.059C198.712 387.564 198.771 386.901 198.836 386.068C198.901 385.236 198.933 384.514 198.933 383.902C198.725 383.915 198.55 383.922 198.407 383.922C197.249 383.987 196.286 384.02 195.519 384.02C194.764 384.02 193.769 384.078 192.533 384.195C192.117 384.234 191.551 384.299 190.836 384.39C190.771 384.39 190.66 384.442 190.504 384.546C190.348 384.637 190.205 384.683 190.075 384.683C189.789 384.683 189.327 384.54 188.69 384.254C188.065 383.967 187.753 383.707 187.753 383.473C187.792 383.408 187.948 383.376 188.221 383.376L191.402 383.493C191.857 383.493 192.553 383.473 193.49 383.434C194.439 383.382 195.096 383.356 195.46 383.356L198.602 383.161C198.68 383.148 198.803 383.102 198.972 383.024C199.142 382.946 199.259 382.907 199.324 382.907C199.493 382.907 199.779 382.992 200.182 383.161C200.585 383.33 200.787 383.493 200.787 383.649ZM203.421 394.205C203.421 394.439 203.337 394.602 203.168 394.693C202.998 394.771 202.738 394.81 202.387 394.81C202.062 394.81 201.795 394.803 201.587 394.79C200.559 394.725 199.948 394.693 199.753 394.693C199.259 394.693 198.101 394.738 196.28 394.829C195.239 394.881 194.465 394.907 193.958 394.907C192.8 394.907 191.727 394.985 190.738 395.141C190.413 395.193 190.023 395.278 189.568 395.395C189.542 395.395 189.346 395.48 188.982 395.649C188.839 395.714 188.703 395.746 188.572 395.746C188.325 395.746 187.779 395.558 186.933 395.18C186.088 394.79 185.665 394.511 185.665 394.341C185.665 394.263 185.782 394.224 186.016 394.224C186.55 394.276 187.116 394.322 187.714 394.361C188.325 394.4 188.846 394.42 189.275 394.42C190.042 394.42 191.018 394.38 192.202 394.302C192.41 394.289 192.683 394.27 193.021 394.244L192.943 389.249C192.943 389.067 192.664 388.865 192.104 388.644C191.558 388.423 191.285 388.267 191.285 388.176C191.285 388.098 191.356 388.026 191.499 387.961C191.642 387.896 191.785 387.863 191.929 387.863H192.007C192.657 387.863 193.145 387.896 193.47 387.961C194.12 388.091 194.446 388.332 194.446 388.683L194.387 389.229L194.251 394.166L199.265 393.834C199.408 393.834 199.688 393.763 200.104 393.62C200.52 393.476 200.774 393.405 200.865 393.405C201.724 393.405 202.361 393.457 202.777 393.561C203.207 393.665 203.421 393.88 203.421 394.205ZM219.462 381.405L219.403 386.302L220.321 386.263C220.542 386.159 220.724 386.062 220.867 385.971C221.192 385.776 221.589 385.678 222.057 385.678C222.395 385.678 222.701 385.717 222.974 385.795C223.247 385.86 223.384 386.023 223.384 386.283C223.384 386.517 223.28 386.673 223.072 386.751C222.877 386.829 222.59 386.868 222.213 386.868L221.179 386.849C220.789 386.849 220.444 386.855 220.145 386.868C219.859 386.881 219.605 386.901 219.384 386.927L219.345 387.649C219.345 388.221 219.299 388.689 219.208 389.054C219.065 389.613 218.844 389.893 218.545 389.893C218.428 389.893 218.337 389.691 218.272 389.288C218.22 388.872 218.194 388.416 218.194 387.922L218.135 381.229C218.135 380.943 217.751 380.644 216.984 380.332C216.229 380.02 215.852 379.805 215.852 379.688C215.852 379.571 215.937 379.493 216.106 379.454C216.288 379.402 216.464 379.376 216.633 379.376C217.114 379.376 217.68 379.486 218.33 379.707C219.137 379.98 219.54 380.28 219.54 380.605C219.54 380.657 219.527 380.774 219.501 380.956C219.475 381.138 219.462 381.288 219.462 381.405ZM211.169 394.732L211.033 392.39C211.033 392.234 210.792 392.065 210.311 391.883C209.829 391.701 209.589 391.577 209.589 391.512C209.589 391.382 209.725 391.304 209.999 391.278C210.272 391.252 210.48 391.233 210.623 391.22C210.87 391.22 211.137 391.246 211.423 391.298C211.722 391.35 212.054 391.402 212.418 391.454L214.935 391.415L217.316 391.239C217.381 391.239 217.53 391.167 217.764 391.024C217.999 390.881 218.194 390.81 218.35 390.81L219.111 390.771C219.397 390.771 219.644 390.81 219.852 390.888C220.073 390.966 220.184 391.128 220.184 391.376C220.184 391.584 220.086 391.727 219.891 391.805C219.696 391.87 219.442 391.902 219.13 391.902L218.389 391.883L212.438 392.117V395.063C212.438 395.35 212.516 395.551 212.672 395.668C212.828 395.772 213.056 395.824 213.355 395.824L217.433 395.727C217.719 395.727 218.005 395.636 218.291 395.454C218.577 395.259 218.747 395.161 218.799 395.161L219.579 395.141C220.021 395.141 220.34 395.167 220.535 395.22C220.925 395.324 221.121 395.538 221.121 395.863C221.121 396.098 220.99 396.254 220.73 396.332C220.47 396.423 220.112 396.468 219.657 396.468L218.096 396.429L213.14 396.468C212.49 396.468 212.008 396.345 211.696 396.098C211.345 395.811 211.169 395.356 211.169 394.732ZM213.706 388.644L208.964 388.898C208.938 389.041 208.912 389.151 208.886 389.229C208.717 389.724 208.483 389.971 208.184 389.971C208.054 389.971 207.956 389.841 207.891 389.58C207.839 389.32 207.8 389.028 207.774 388.702L207.599 383.298C207.599 383.037 207.299 382.816 206.701 382.634C206.116 382.452 205.823 382.309 205.823 382.205C205.823 382.075 205.934 381.99 206.155 381.951C206.389 381.912 206.629 381.893 206.877 381.893H207.501C208.099 381.893 208.49 381.99 208.672 382.185C208.854 382.38 208.945 382.667 208.945 383.044V384.449L213.589 384.254L213.53 382.595C213.53 382.361 213.283 382.146 212.789 381.951C212.295 381.756 212.047 381.613 212.047 381.522C212.047 381.418 212.132 381.346 212.301 381.307C212.47 381.255 212.62 381.229 212.75 381.229C213.244 381.229 213.686 381.275 214.077 381.366C214.675 381.509 214.974 381.73 214.974 382.029C214.974 382.107 214.961 382.231 214.935 382.4C214.909 382.569 214.896 382.693 214.896 382.771L214.877 387.395C214.877 388.007 214.805 388.501 214.662 388.878C214.532 389.242 214.317 389.424 214.018 389.424C213.901 389.424 213.81 389.255 213.745 388.917C213.745 388.865 213.732 388.774 213.706 388.644ZM208.984 385.034V388.273L213.667 388.02L213.608 384.898L208.984 385.034ZM239.991 385.19C239.939 385.411 239.743 385.554 239.405 385.62C239.067 385.685 238.657 385.717 238.176 385.717C237.877 385.73 237.623 385.737 237.415 385.737C235.776 385.802 234.495 385.834 233.571 385.834H230.274C229.623 385.834 229.174 385.724 228.927 385.502C228.68 385.281 228.556 384.859 228.556 384.234L228.498 382.244C228.498 382.036 228.192 381.841 227.581 381.659C226.982 381.463 226.677 381.34 226.664 381.288C226.664 381.119 226.755 381.002 226.937 380.937C227.132 380.859 227.373 380.82 227.659 380.82H228.01C228.569 380.82 228.992 380.859 229.278 380.937C229.747 381.067 229.981 381.301 229.981 381.639L229.922 382.771V384.254C229.922 384.774 230.078 385.06 230.391 385.112C230.716 385.151 230.989 385.177 231.21 385.19H233.766C234.221 385.19 234.729 385.164 235.288 385.112C235.86 385.06 236.192 385.015 236.283 384.976C236.413 384.976 236.621 384.891 236.908 384.722C237.207 384.54 237.395 384.449 237.474 384.449C238.371 384.449 239.015 384.488 239.405 384.566C239.808 384.631 240.01 384.8 240.01 385.073L239.991 385.19ZM242.644 388.78C242.644 389.119 242.579 389.34 242.449 389.444C242.332 389.535 242.078 389.58 241.688 389.58C241.389 389.58 241.142 389.574 240.947 389.561C239.971 389.496 239.334 389.463 239.034 389.463H238.391C238.065 389.463 237.135 389.496 235.6 389.561C234.989 389.587 234.417 389.6 233.883 389.6C232.869 389.6 231.75 389.646 230.527 389.737C230.111 389.763 229.565 389.815 228.888 389.893C228.641 389.893 228.4 389.951 228.166 390.068C227.932 390.185 227.763 390.244 227.659 390.244C227.36 390.244 226.839 390.055 226.098 389.678C225.356 389.301 224.986 389.008 224.986 388.8C225.025 388.735 225.103 388.702 225.22 388.702C225.662 388.78 226.156 388.852 226.703 388.917C227.249 388.982 227.763 389.015 228.244 389.015H229.2C230.202 389.015 231.971 388.982 234.508 388.917C237.057 388.839 238.469 388.754 238.742 388.663C238.95 388.663 239.171 388.624 239.405 388.546C239.639 388.455 239.88 388.358 240.127 388.254C241.805 388.254 242.644 388.429 242.644 388.78ZM240.205 395.824C240.153 396.02 239.978 396.143 239.678 396.195C239.392 396.26 239.047 396.293 238.644 396.293L234.41 396.312L231.152 396.371C230.514 396.371 230.02 396.215 229.669 395.902C229.33 395.577 229.161 395.109 229.161 394.498V392.449C229.161 392.293 228.966 392.143 228.576 392C228.199 391.857 227.808 391.714 227.405 391.571C227.405 391.428 227.483 391.33 227.639 391.278C227.795 391.213 227.997 391.18 228.244 391.18L229.142 391.22C229.298 391.22 229.415 391.22 229.493 391.22C229.844 391.22 230.104 391.265 230.274 391.356C230.443 391.434 230.527 391.642 230.527 391.98L230.488 392.976V394.771C230.488 395.135 230.527 395.376 230.605 395.493C230.683 395.597 230.885 395.649 231.21 395.649L234.488 395.629C234.644 395.629 234.768 395.629 234.859 395.629C235.002 395.629 235.106 395.629 235.171 395.629C235.288 395.629 235.379 395.629 235.444 395.629C235.548 395.629 235.62 395.629 235.659 395.629C236.231 395.629 236.55 395.61 236.615 395.571C236.784 395.571 236.986 395.519 237.22 395.415C237.454 395.298 237.695 395.18 237.942 395.063C238.709 395.063 239.275 395.109 239.639 395.2C240.017 395.291 240.205 395.499 240.205 395.824ZM175.849 424.312V424.41C175.849 424.527 175.81 424.657 175.732 424.8C175.654 424.943 175.608 425.041 175.595 425.093L174.854 429.795C174.945 429.795 175.016 429.802 175.068 429.815C175.393 429.893 175.569 430.049 175.595 430.283C175.595 430.439 175.511 430.55 175.341 430.615C175.185 430.667 174.977 430.693 174.717 430.693L174.132 430.673C173.351 430.673 172.363 430.706 171.166 430.771C170.776 430.784 170.255 430.816 169.605 430.868C169.605 431.233 169.533 431.545 169.39 431.805C169.26 432.065 169.085 432.195 168.863 432.195C168.72 432.195 168.603 432.026 168.512 431.688C168.486 431.584 168.454 431.408 168.415 431.161L168.005 425.288C168.005 425.08 167.836 424.898 167.498 424.741C167.172 424.585 166.841 424.423 166.502 424.254C166.502 424.124 166.62 424.039 166.854 424C167.101 423.948 167.322 423.922 167.517 423.922C167.712 423.922 167.946 423.941 168.22 423.98C168.844 424.072 169.234 424.117 169.39 424.117C169.911 424.117 170.717 424.104 171.81 424.078C172.915 424.039 173.501 424.007 173.566 423.98C173.67 423.98 173.793 423.954 173.937 423.902C174.08 423.837 174.229 423.772 174.385 423.707C174.554 423.707 174.834 423.779 175.224 423.922C175.628 424.065 175.836 424.195 175.849 424.312ZM184.298 428.878C184.298 429.086 184.2 429.229 184.005 429.307C183.823 429.372 183.563 429.405 183.224 429.405L181.995 429.385C181.514 429.385 181.052 429.405 180.61 429.444C180.532 429.444 180.428 429.457 180.298 429.483L180.259 434.81C180.259 435.902 180.18 436.689 180.024 437.171C179.868 437.665 179.654 437.912 179.38 437.912C179.289 437.912 179.211 437.704 179.146 437.288C179.094 436.885 179.068 436.442 179.068 435.961L178.99 421.327C178.99 421.08 178.58 420.761 177.761 420.371C176.954 419.98 176.551 419.746 176.551 419.668C176.551 419.577 176.636 419.512 176.805 419.473C176.987 419.421 177.137 419.395 177.254 419.395C177.8 419.395 178.418 419.506 179.107 419.727C179.953 420 180.376 420.319 180.376 420.683C180.376 420.761 180.363 420.891 180.337 421.073C180.311 421.255 180.298 421.398 180.298 421.502V428.78L180.922 428.702C181.065 428.689 181.436 428.553 182.034 428.293C182.333 428.163 182.633 428.098 182.932 428.098C183.335 428.098 183.66 428.156 183.907 428.273C184.167 428.377 184.298 428.579 184.298 428.878ZM174.21 424.605L169.39 424.741L169.527 430.224L173.995 429.99C174.047 429.678 174.08 429.411 174.093 429.19C174.158 428.527 174.19 427.857 174.19 427.18L174.21 424.605ZM198.524 423.415L198.543 423.649C198.543 424.624 198.12 425.424 197.275 426.049C196.507 426.621 195.623 426.907 194.621 426.907C193.372 426.907 192.358 426.589 191.577 425.951C190.81 425.301 190.426 424.507 190.426 423.571V423.415C190.426 422.218 191.018 421.314 192.202 420.702C192.592 420.507 193.184 420.319 193.977 420.137C194.003 420.111 194.029 420.072 194.055 420.02C194.055 420.007 194.062 419.98 194.075 419.941C194.075 419.863 194.042 419.772 193.977 419.668C193.925 419.564 193.899 419.506 193.899 419.493C193.899 419.454 193.932 419.421 193.997 419.395C194.01 419.395 194.029 419.389 194.055 419.376C194.225 419.376 194.433 419.467 194.68 419.649C194.927 419.818 195.051 419.98 195.051 420.137C195.779 420.371 196.325 420.598 196.69 420.82C197.808 421.496 198.42 422.361 198.524 423.415ZM203.714 428.585C203.714 428.807 203.603 428.963 203.382 429.054C203.174 429.132 202.862 429.171 202.446 429.171C201.99 429.171 201.379 429.158 200.611 429.132C199.857 429.093 199.402 429.073 199.246 429.073C198.764 429.073 198.12 429.086 197.314 429.112C196.52 429.125 195.649 429.138 194.699 429.151C193.177 429.151 191.987 429.184 191.129 429.249C190.283 429.301 189.646 429.379 189.216 429.483C189.138 429.483 188.982 429.541 188.748 429.659C188.514 429.776 188.319 429.834 188.163 429.834C187.929 429.834 187.428 429.665 186.66 429.327C185.906 428.976 185.529 428.715 185.529 428.546C185.529 428.468 185.594 428.429 185.724 428.429C186.179 428.494 186.712 428.553 187.324 428.605C187.948 428.644 188.592 428.663 189.255 428.663L190.855 428.683C191.649 428.683 193.249 428.637 195.655 428.546C198.062 428.442 199.337 428.358 199.48 428.293C199.779 428.293 200.091 428.228 200.416 428.098C200.585 428.033 200.761 427.961 200.943 427.883C201.88 427.883 202.504 427.909 202.816 427.961C203.415 428.065 203.714 428.273 203.714 428.585ZM199.382 431.766C199.382 431.857 199.298 431.987 199.129 432.156C199.038 432.247 198.992 432.312 198.992 432.351C198.979 432.364 198.946 432.527 198.894 432.839C198.855 433.138 198.784 433.561 198.68 434.107L198.348 435.824C198.569 435.824 198.784 435.844 198.992 435.883C199.213 435.909 199.324 436.013 199.324 436.195C199.324 436.351 199.252 436.455 199.109 436.507C198.979 436.559 198.777 436.585 198.504 436.585L191.851 436.722C191.851 436.982 191.798 437.236 191.694 437.483C191.59 437.73 191.434 437.854 191.226 437.854C191.096 437.854 190.985 437.633 190.894 437.19C190.868 437.047 190.836 436.826 190.797 436.527L190.446 432.449C190.42 432.28 190.159 432.091 189.665 431.883C189.184 431.675 188.943 431.538 188.943 431.473C188.943 431.369 189.021 431.298 189.177 431.259C189.346 431.207 189.496 431.18 189.626 431.18H189.704C190.303 431.18 190.803 431.233 191.207 431.337C191.337 431.363 191.48 431.415 191.636 431.493L195.129 431.473C195.467 431.473 195.825 431.46 196.202 431.434C196.579 431.408 196.865 431.389 197.06 431.376C197.255 431.35 197.424 431.291 197.568 431.2C197.724 431.109 197.821 431.063 197.86 431.063C197.977 431.063 198.257 431.161 198.699 431.356C199.142 431.538 199.369 431.675 199.382 431.766ZM195.011 420.702C194.946 420.767 194.888 420.826 194.836 420.878C194.719 420.995 194.582 421.067 194.426 421.093C193.698 421.223 193.093 421.463 192.611 421.815C192.013 422.257 191.714 422.81 191.714 423.473C191.714 424.202 191.974 424.793 192.494 425.249C193.028 425.691 193.704 425.912 194.524 425.912C195.265 425.912 195.922 425.717 196.494 425.327C197.145 424.885 197.47 424.306 197.47 423.59C197.47 422.771 197.06 422.042 196.241 421.405C195.968 421.197 195.558 420.963 195.011 420.702ZM197.724 432L191.772 432.117L191.87 436.098L195.011 436.039L197.587 435.902L197.724 432ZM218.964 422.42C218.262 422.42 217.833 422.387 217.676 422.322C217.39 422.218 217.072 422.055 216.72 421.834C216.291 421.561 216.076 421.359 216.076 421.229C216.076 421.19 216.141 421.158 216.272 421.132C216.376 421.132 216.629 421.164 217.033 421.229C217.436 421.294 217.728 421.327 217.911 421.327L220.213 421.307C220.59 421.307 220.857 421.346 221.013 421.424C221.169 421.489 221.247 421.639 221.247 421.873C221.247 422.068 221.02 422.211 220.564 422.302C220.109 422.38 219.576 422.42 218.964 422.42ZM224.35 424.078C224.311 424.247 224.161 424.371 223.901 424.449C223.654 424.514 223.341 424.546 222.964 424.546L222.008 424.527C221.774 424.527 221.215 424.559 220.33 424.624C219.459 424.676 218.945 424.702 218.789 424.702C218.489 424.702 218.132 424.735 217.715 424.8C217.312 424.852 216.896 424.911 216.467 424.976C216.128 425.067 215.79 425.151 215.452 425.229C215.231 425.229 214.828 425.099 214.242 424.839C213.657 424.566 213.364 424.377 213.364 424.273C213.364 424.221 213.416 424.189 213.52 424.176C213.533 424.176 213.559 424.176 213.598 424.176C213.833 424.176 214.184 424.202 214.652 424.254C215.12 424.306 215.478 424.332 215.725 424.332C216.05 424.332 217.026 424.273 218.652 424.156C220.291 424.039 221.163 423.954 221.267 423.902C221.423 423.902 221.605 423.85 221.813 423.746C222.281 423.512 222.594 423.395 222.75 423.395C223.361 423.395 223.784 423.441 224.018 423.532C224.252 423.61 224.369 423.746 224.369 423.941L224.35 424.078ZM230.886 427.961C230.847 428.13 230.717 428.247 230.496 428.312C230.275 428.377 229.924 428.41 229.442 428.41L227.042 428.527L226.964 431.122C226.964 431.707 226.893 432.202 226.75 432.605C226.607 433.008 226.411 433.21 226.164 433.21C226.06 433.21 225.976 433.021 225.911 432.644C225.859 432.267 225.833 431.805 225.833 431.259L225.735 421.307C225.735 421.112 225.325 420.813 224.506 420.41C223.699 420.007 223.296 419.759 223.296 419.668C223.296 419.551 223.374 419.473 223.53 419.434C223.699 419.395 223.875 419.376 224.057 419.376C224.525 419.376 225.111 419.486 225.813 419.707C226.698 419.98 227.14 420.293 227.14 420.644C227.14 420.709 227.127 420.82 227.101 420.976C227.075 421.132 227.062 421.262 227.062 421.366L227.042 427.902L228.076 427.844L229.111 427.298H229.755C230.119 427.298 230.398 427.33 230.594 427.395C230.802 427.46 230.906 427.597 230.906 427.805L230.886 427.961ZM222.789 428.78C222.789 429.613 222.398 430.322 221.618 430.907C220.889 431.454 220.089 431.727 219.218 431.727C218.021 431.727 217.039 431.363 216.272 430.634C215.608 429.997 215.276 429.32 215.276 428.605C215.276 427.538 215.803 426.732 216.857 426.185C217.403 425.99 217.956 425.795 218.515 425.6C218.594 425.561 218.646 425.535 218.672 425.522C218.737 425.483 218.769 425.385 218.769 425.229C218.769 425.151 218.75 425.054 218.711 424.937C218.672 424.82 218.652 424.722 218.652 424.644C218.652 424.553 218.691 424.507 218.769 424.507C218.964 424.507 219.172 424.592 219.394 424.761C219.615 424.93 219.725 425.106 219.725 425.288C219.725 425.366 219.706 425.437 219.667 425.502C219.654 425.528 219.628 425.561 219.589 425.6C220.304 425.704 220.837 425.841 221.189 426.01C222.255 426.53 222.789 427.395 222.789 428.605V428.78ZM228.974 436.527C228.974 436.748 228.824 436.917 228.525 437.034C228.226 437.151 227.673 437.21 226.867 437.21L220.818 437.249C220.233 437.249 219.823 437.171 219.589 437.015C219.289 436.807 219.14 436.416 219.14 435.844V434.166C219.14 433.893 218.932 433.672 218.515 433.502C218.112 433.333 217.696 433.158 217.267 432.976C217.267 432.846 217.384 432.761 217.618 432.722C217.865 432.683 218.106 432.663 218.34 432.663C219.042 432.663 219.576 432.715 219.94 432.82C220.317 432.924 220.506 433.08 220.506 433.288C220.506 433.34 220.486 433.437 220.447 433.58C220.408 433.724 220.389 433.834 220.389 433.912V435.824C220.389 436.15 220.428 436.377 220.506 436.507C220.584 436.637 220.707 436.702 220.876 436.702L224.974 436.507C225.13 436.507 225.462 436.403 225.969 436.195C226.06 436.169 226.184 436.111 226.34 436.02L227.335 435.98C227.803 435.98 228.194 436.02 228.506 436.098C228.818 436.176 228.974 436.319 228.974 436.527ZM221.852 428.585V428.41C221.852 427.837 221.637 427.343 221.208 426.927C220.636 426.367 220.135 426.088 219.706 426.088C219.615 426.244 219.537 426.348 219.472 426.4C219.328 426.517 219.172 426.576 219.003 426.576C218.587 426.576 218.106 426.751 217.559 427.102C216.87 427.545 216.525 428.085 216.525 428.722C216.525 429.242 216.792 429.724 217.325 430.166C217.872 430.595 218.47 430.81 219.12 430.81C219.81 430.81 220.421 430.615 220.955 430.224C221.553 429.782 221.852 429.236 221.852 428.585ZM258 429.132C257.961 429.34 257.844 429.489 257.649 429.58C257.467 429.659 257.219 429.698 256.907 429.698C256.179 429.698 255.593 429.691 255.151 429.678C253.369 429.626 252.393 429.6 252.224 429.6L248.946 429.659C247.867 429.659 246.741 429.717 245.571 429.834C245.167 429.873 244.667 429.938 244.068 430.029C243.925 430.029 243.704 430.094 243.405 430.224C243.106 430.341 242.852 430.4 242.644 430.4C242.319 430.4 241.792 430.257 241.063 429.971C240.348 429.685 239.99 429.437 239.99 429.229C239.99 429.112 240.094 429.054 240.302 429.054C240.38 429.054 240.608 429.08 240.985 429.132C241.363 429.184 241.701 429.21 242 429.21L243.776 429.249C244.803 429.249 245.681 429.236 246.41 429.21C247.151 429.184 247.834 429.151 248.458 429.112L248.38 427.044L245.59 427.141C245.005 427.141 244.595 427.018 244.361 426.771C244.14 426.511 244.029 426.068 244.029 425.444L244.01 422.049C244.01 421.841 243.711 421.633 243.112 421.424C242.514 421.216 242.215 421.073 242.215 420.995C242.215 420.878 242.286 420.8 242.429 420.761C242.585 420.722 242.761 420.702 242.956 420.702C243.099 420.702 243.301 420.715 243.561 420.741C243.821 420.767 243.99 420.78 244.068 420.78C244.406 420.78 244.654 420.813 244.81 420.878C244.966 420.93 245.122 420.989 245.278 421.054C245.902 421.054 246.976 421.028 248.498 420.976C250.019 420.911 250.845 420.846 250.976 420.78C251.249 420.78 251.509 420.715 251.756 420.585C251.873 420.52 251.99 420.449 252.107 420.371L253.102 420.351C253.584 420.351 253.935 420.384 254.156 420.449C254.377 420.501 254.488 420.618 254.488 420.8C254.488 421.164 254.221 421.379 253.688 421.444C253.571 421.457 253.245 421.463 252.712 421.463L245.356 421.639V423.746L247.756 423.766C248.25 423.766 248.907 423.733 249.727 423.668C249.987 423.655 250.345 423.623 250.8 423.571C250.969 423.571 251.158 423.512 251.366 423.395C251.574 423.278 251.691 423.22 251.717 423.22L252.751 423.18C253.089 423.18 253.376 423.213 253.61 423.278C253.844 423.33 253.961 423.46 253.961 423.668C253.961 423.85 253.779 424 253.415 424.117C253.063 424.234 252.478 424.293 251.658 424.293C251.411 424.293 251.236 424.293 251.132 424.293C251.041 424.293 250.976 424.293 250.937 424.293L245.337 424.39V426.088C245.337 426.257 245.382 426.367 245.473 426.42C245.564 426.459 245.714 426.478 245.922 426.478L248.907 426.439L251.054 426.361C251.262 426.361 251.515 426.27 251.815 426.088C251.958 425.997 252.107 425.906 252.263 425.815L253.161 425.795C253.512 425.795 253.811 425.828 254.058 425.893C254.319 425.945 254.449 426.075 254.449 426.283C254.449 426.517 254.332 426.673 254.098 426.751C253.863 426.829 253.571 426.868 253.219 426.868C253.037 426.868 252.758 426.888 252.38 426.927C252.016 426.953 251.639 426.966 251.249 426.966L249.785 427.005L249.746 428.254L249.668 429.015L254.039 428.839C254.208 428.839 254.481 428.754 254.858 428.585C255.028 428.507 255.138 428.468 255.19 428.468H255.795C256.445 428.468 256.972 428.507 257.376 428.585C257.792 428.65 258 428.807 258 429.054V429.132ZM253.18 434.302V434.42C253.18 435.408 252.764 436.215 251.932 436.839C251.177 437.411 250.293 437.698 249.278 437.698C248.159 437.698 247.171 437.372 246.312 436.722C245.454 436.072 245.024 435.285 245.024 434.361C245.024 433.32 245.415 432.533 246.195 432C247.041 431.61 247.886 431.22 248.732 430.829L248.673 430.478L248.751 430.42C248.959 430.42 249.174 430.504 249.395 430.673C249.629 430.829 249.746 430.992 249.746 431.161C250.514 431.343 251.086 431.532 251.463 431.727C252.608 432.325 253.18 433.184 253.18 434.302ZM249.629 431.688C249.577 431.766 248.966 432.02 247.795 432.449C246.832 432.8 246.351 433.431 246.351 434.341C246.351 434.966 246.676 435.512 247.327 435.98C247.925 436.41 248.576 436.624 249.278 436.624C250.032 436.624 250.676 436.39 251.21 435.922C251.756 435.441 252.029 434.881 252.029 434.244C252.029 433.58 251.789 433.021 251.307 432.566C250.696 431.98 250.137 431.688 249.629 431.688Z" fill="black"/>
<rect x="420.5" y="128.5" width="58" height="69" stroke="#D94141"/>
<rect x="420.5" y="128.5" width="58" height="69" stroke="#D94141"/>
<rect x="420.5" y="64.5" width="58" height="69" stroke="#D94141"/>
<rect x="420.5" y="64.5" width="58" height="69" stroke="#D94141"/>
<rect x="420.5" y="192.5" width="58" height="69" stroke="#D94141"/>
<rect x="420.5" y="192.5" width="58" height="69" stroke="#D94141"/>
<rect x="420.5" y="256.5" width="58" height="69" stroke="#D94141"/>
<rect x="420.5" y="256.5" width="58" height="69" stroke="#D94141"/>
<rect x="420.5" y="320.5" width="58" height="69" stroke="#D94141"/>
<rect x="420.5" y="320.5" width="58" height="69" stroke="#D94141"/>
<rect x="391.746" y="56.8082" width="62" height="31" transform="rotate(-7.82917 391.746 56.8082)" fill="white"/>
<rect x="455.594" y="49.2296" width="62" height="31" transform="rotate(5.73714 455.594 49.2296)" fill="white"/>
<rect x="446" y="391.119" width="30.5117" height="30.7845" transform="rotate(-36.4294 446 391.119)" fill="white"/>
<rect x="468.341" y="374.657" width="40.6551" height="30.7845" transform="rotate(-40.9717 468.341 374.657)" fill="white"/>
</svg>
